<svg xmlns="http://www.w3.org/2000/svg" viewBox="0 0 1371 1488"><g fill="none" fill-rule="evenodd"><g fill="#6b8c91" fill-rule="nonzero"><path d="M1096.85969 0c10.10755 0 18.30133 8.19606482 18.30133 18.3064231 0 10.1103584-8.19378 18.3064232-18.30133 18.3064232h-1078.5583604c-10.10754522 0-18.3013296-8.1960648-18.3013296-18.3064232 0-10.11035828 8.19378438-18.3064231 18.3013296-18.3064231zM102.512012 91.5321154l908.966038 1.220445c10.10754.013571 18.29032 8.2206296 18.27677 18.3309786-.01359 10.11035-8.21836 18.295406-18.3259 18.281852l-908.96604-1.220445c-10.1075357-.013571-18.2903143-8.22063-18.276764-18.330979.013584-10.1103497 8.2183594-18.2954057 18.325896-18.2818516zM889.444621 183.064231c10.107545 0 18.301329 8.196065 18.301329 18.306424 0 10.110358-8.193784 18.306423-18.301329 18.306423h-666.168399c-10.107546 0-18.30133-8.196065-18.30133-18.306423 0-10.110359 8.193784-18.306424 18.30133-18.306424z" transform="translate(128.7 1181.374)"/><path d="m18.3891114.00021217 254.9985266 1.22064227c10.107429.04837437 18.261916 8.28356054 18.213769 18.39380316-.048575 10.1102426-8.28147 18.2669984-18.3889 18.2188381l-254.9985259-1.2206423c-10.10742956-.0483743-18.26191589-8.2835605-18.21376899-18.3938031.04857491-10.11024261 8.28146976-18.26699844 18.38889929-18.21883813zM270.721253 192.828399c10.107255-.076591 18.362877 8.057149 18.439983 18.167217.076034 10.110068-8.055443 18.367987-18.162698 18.444579l-161.051701 1.220428c-10.1072553.076591-18.3628769-8.057149-18.4399833-18.167217-.0760338-10.110068 8.0554431-18.367987 18.1626983-18.444579z" transform="translate(1079.148 684.66)"/><path d="M212.180697.00036553c10.107345-.06321609 18.3525 8.08114007 18.416437 18.19129847.063199 10.1101583-8.078891 18.3576076-18.186237 18.4211935l-193.9940937 1.220798c-10.10734541.0632161-18.35249995-8.08114-18.41643787-18.1912984-.0631985-10.11015837 8.07889161-18.35760765 18.18623697-18.42119355zM274.520318 199.540386c10.107545 0 18.30133 8.196064 18.30133 18.306423 0 10.110358-8.193785 18.306423-18.30133 18.306423h-215.9556899c-10.1075453 0-18.3013297-8.196065-18.3013297-18.306423 0-10.110359 8.1937844-18.306423 18.3013297-18.306423z" transform="translate(.59 797.55)"/></g><g transform="translate(267.79)"><path fill="#1f303a" fill-rule="nonzero" d="m447.772532 1023.93927v463.76272h-48.803546v-463.76272z"/><g transform="translate(2.44 805.483)"><path fill="#55767d" d="m414.368151 4.88171284.871683 251.40821116h-402.5431084z"/><path fill="#335056" d="m814.061387 4.88171284.871683 251.40821116h-402.543109z" transform="matrix(-1 0 0 1 1227.323 0)"/><g fill="#1f303a"><path fill-rule="nonzero" d="m417.270316 0 417.270316 261.171637h-834.540632zm0 43.1885135-289.775933 181.3702775h579.549426z"/><path d="m417.270316 173.300806 417.270316 87.870831h-834.540632z"/><path fill-rule="nonzero" d="m417.270316 173.300806 417.270316 87.870831h-834.540632zm0 37.415888-65.735936 13.842097h131.469432z"/><path d="m412.389961 119.601965 256.218615 141.569672h-512.43723z"/><path fill-rule="nonzero" d="m412.389961 119.601965 256.218615 141.569672h-512.43723zm0 41.826515-114.256421 63.130311h228.510402z"/></g></g><g transform="translate(0 663.913)"><path fill="#83a3a8" d="m416.398447 9.76342568.871869 202.59108232h-402.6292523z"/><path fill="#45666d" d="m816.587522 9.76342568.871869 202.59108232h-402.629252z" transform="matrix(-1 0 0 1 1232.29 0)"/><g fill="#1f303a" fill-rule="nonzero"><path d="m417.270316 0 417.270316 214.795365h-834.540632zm0 41.1748069-266.157457 137.0077121h532.312474z"/><path d="m430.079733 42.4365095 239.67302 99.4885315c18.671208 7.750438 27.525989 29.173627 19.777707 47.850032-5.671041 13.669438-19.011596 22.579435-33.807213 22.579435h-479.34604c-20.21509 0-36.602659-16.392129-36.602659-36.612846 0-14.799734 8.907519-28.144002 22.573153-33.816621l239.67302-99.4885315c8.981667-3.7282995 19.077346-3.7282995 28.059012 0zm-14.029506 33.8166216-239.67302 99.4885309h479.34604z"/></g></g><g transform="translate(107.368 495.494)"><path fill="#83a3a8" d="m311.68747 9.76342568.655223 187.94594432h-302.58198386z"/><path fill="#45666d" d="m611.829276 9.76342568.655223 187.94594432h-302.581984z" transform="matrix(-1 0 0 1 922.387 0)"/><g fill="#1f303a" fill-rule="nonzero"><path d="m313.562781 0 313.562782 200.150226h-627.125563zm0 43.4301583-188.16451 120.1072217h376.326581z"/><path d="m326.670938 42.816582 166.305482 85.735142c17.968996 9.263521 25.028267 31.343892 15.767323 49.317889-6.277587 12.183782-18.832823 19.839757-32.535745 19.839757h-332.610966c-20.21509 0-36.602659-16.39213-36.602659-36.612846 0-13.706736 7.653845-26.265466 19.834237-32.5448l166.305483-85.735142c10.521371-5.424062 23.015473-5.424062 33.536845 0zm-16.768423 32.5447998-166.305483 85.7351422h332.610966z"/></g></g><g transform="translate(107.368 331.957)"><path fill="#83a3a8" d="m311.68747 9.76342568.655223 180.62337532h-302.58198386z"/><path fill="#45666d" d="m611.829276 9.76342568.655223 180.62337532h-302.581984z" transform="matrix(-1 0 0 1 922.387 0)"/><path fill="#1f303a" fill-rule="nonzero" d="m313.562781 0 313.562782 192.827657h-627.125563zm-.00244 42.976159-184.138218 113.238652h368.278876z"/></g><g transform="translate(292.821)"><path fill="#1f303a" fill-rule="nonzero" d="m129.329396 0v339.279042h-2.440177v-339.279042z"/><path fill="#82a3a8" d="m126.784368.29557246.104851 336.54261354h-126.889219z"/><path fill="#36575c" d="m256.218615.8247425-.290724 336.0134435h-126.889219z" transform="matrix(-1 0 0 1 385.257 0)"/><path fill="#1d363b" d="m188.271354 180.051299 67.947261 73.797769-126.879687 83.135712z" transform="matrix(-1 0 0 1 385.558 0)"/><path fill="#243d42" d="m58.9419581 180.051299 67.9472609 73.797769-126.87968706 83.135712z"/></g></g></g></svg>
