<svg xmlns="http://www.w3.org/2000/svg" xmlns:xlink="http://www.w3.org/1999/xlink" viewBox="0 0 1567 292"><defs><path id="a" d="m19.6 2.1v58.8h23.5v16.6h-43.1v-75.4z"/><path id="b" d="m107.3 49.5-8.8-25.1-8.8 25.1zm5.2 14.9h-28l-4.5 13.1h-20.9l28.7-75.4h21.4l28.7 75.4h-20.9z"/><path id="c" d="m176.1 62.3h4.3c4.933333 0 8.466667-.6333333 10.6-1.9s3.2-3.3 3.2-6.1-1.066667-4.8333333-3.2-6.1-5.666667-1.9-10.6-1.9h-4.3zm0-30.6h3.6c6.133333 0 9.2-2.4333333 9.2-7.3s-3.066667-7.3-9.2-7.3h-3.6zm-19.6-29.6h29.2c6.933333 0 12.2 1.66666667 15.8 5 3.6 3.3333333 5.4 8.1333333 5.4 14.4 0 3.8-.683333 6.95-2.05 9.45s-3.45 4.6166667-6.25 6.35c2.8.5333333 5.183333 1.35 7.15 2.45s3.566667 2.45 4.8 4.05 2.116667 3.4 2.65 5.4.8 4.1333333.8 6.4c0 3.5333333-.616667 6.6666667-1.85 9.4s-2.966667 5.0333333-5.2 6.9-4.95 3.2666667-8.15 4.2-6.8 1.4-10.8 1.4h-31.5z"/><path id="d" d="m277.1 21.4c-2.133333-1.7333333-4.266667-3.0166667-6.4-3.85s-4.2-1.25-6.2-1.25c-2.533333 0-4.6.6-6.2 1.8s-2.4 2.7666667-2.4 4.7c0 1.3333333.4 2.4333333 1.2 3.3s1.85 1.6166667 3.15 2.25 2.766667 1.1833333 4.4 1.65 3.25.9666667 4.85 1.5c6.4 2.1333333 11.083333 4.9833333 14.05 8.55s4.45 8.2166667 4.45 13.95c0 3.8666667-.65 7.3666667-1.95 10.5s-3.2 5.8166667-5.7 8.05-5.566667 3.9666667-9.2 5.2-7.75 1.85-12.35 1.85c-9.533333 0-18.366667-2.8333333-26.5-8.5l8.4-15.8c2.933333 2.6 5.833333 4.5333333 8.7 5.8s5.7 1.9 8.5 1.9c3.2 0 5.583333-.7333333 7.15-2.2s2.35-3.1333333 2.35-5c0-1.1333333-.2-2.1166667-.6-2.95s-1.066667-1.6-2-2.3-2.15-1.35-3.65-1.95-3.316667-1.2666667-5.45-2c-2.533333-.8-5.016667-1.6833333-7.45-2.65s-4.6-2.25-6.5-3.85-3.433333-3.6166667-4.6-6.05-1.75-5.5166667-1.75-9.25.616667-7.1166667 1.85-10.15 2.966667-5.63333333 5.2-7.8 4.966667-3.85 8.2-5.05 6.85-1.8 10.85-1.8c3.733333 0 7.633333.51666667 11.7 1.55s7.966667 2.55 11.7 4.55z"/><path id="e" d="m0 124v-120.64h31.36l57.92 73.76v-73.76h31.2v120.64h-31.2l-57.92-73.76v73.76z"/><path id="f" d="m177.56 63.68c0 4.8.906667 9.2266667 2.72 13.28s4.266667 7.5733333 7.36 10.56 6.693333 5.3066667 10.8 6.96 8.453333 2.48 13.04 2.48 8.933333-.8266667 13.04-2.48 7.733333-3.9733333 10.88-6.96 5.626667-6.5066667 7.44-10.56 2.72-8.48 2.72-13.28-.906667-9.2266667-2.72-13.28-4.293333-7.5733333-7.44-10.56-6.773333-5.3066667-10.88-6.96-8.453333-2.48-13.04-2.48-8.933333.8266667-13.04 2.48-7.706667 3.9733333-10.8 6.96-5.546667 6.5066667-7.36 10.56-2.72 8.48-2.72 13.28zm-32.8 0c0-8.96 1.653333-17.3066667 4.96-25.04s7.893333-14.48 13.76-20.24 12.88-10.26666667 21.04-13.52 17.146667-4.88 26.96-4.88c9.706667 0 18.666667 1.62666667 26.88 4.88s15.28 7.76 21.2 13.52 10.533333 12.5066667 13.84 20.24 4.96 16.08 4.96 25.04-1.653333 17.3066667-4.96 25.04-7.92 14.48-13.84 20.24-12.986667 10.266667-21.2 13.52-17.173333 4.88-26.88 4.88c-9.813333 0-18.8-1.626667-26.96-4.88s-15.173333-7.76-21.04-13.52-10.453333-12.5066667-13.76-20.24-4.96-16.08-4.96-25.04z"/><path id="g" d="m332.56 57.28h5.92c6.186667 0 10.933333-1.28 14.24-3.84s4.96-6.24 4.96-11.04-1.653333-8.48-4.96-11.04-8.053333-3.84-14.24-3.84h-5.92zm68.96 66.72h-39.04l-29.92-46.4v46.4h-31.36v-120.64h48.8c6.72 0 12.586667.98666667 17.6 2.96s9.146667 4.6666667 12.4 8.08 5.706667 7.36 7.36 11.84 2.48 9.28 2.48 14.4c0 9.1733333-2.213333 16.6133333-6.64 22.32s-10.96 9.5733333-19.6 11.6z"/><path id="h" d="m463.56 29.92v94.08h-31.36v-94.08h-25.76v-26.56h82.88v26.56z"/><path id="i" d="m537.6 49.92h45.28v-46.56h31.36v120.64h-31.36v-49.76h-45.28v49.76h-31.36v-120.64h31.36z"/><path id="j" d="m662.68 3.36 20.8 77.92 25.6-77.92h24.96l25.6 77.92 20.8-77.92h32.8l-36 120.64h-32l-23.68-69.92-23.68 69.92h-32l-36-120.64z"/><path id="k" d="m853.68 63.68c0 4.8.906667 9.2266667 2.72 13.28s4.266667 7.5733333 7.36 10.56 6.693333 5.3066667 10.8 6.96 8.453333 2.48 13.04 2.48 8.933333-.8266667 13.04-2.48 7.733333-3.9733333 10.88-6.96 5.626667-6.5066667 7.44-10.56 2.72-8.48 2.72-13.28-.906667-9.2266667-2.72-13.28-4.293333-7.5733333-7.44-10.56-6.773333-5.3066667-10.88-6.96-8.453333-2.48-13.04-2.48-8.933333.8266667-13.04 2.48-7.706667 3.9733333-10.8 6.96-5.546667 6.5066667-7.36 10.56-2.72 8.48-2.72 13.28zm-32.8 0c0-8.96 1.653333-17.3066667 4.96-25.04s7.893333-14.48 13.76-20.24 12.88-10.26666667 21.04-13.52 17.146667-4.88 26.96-4.88c9.706667 0 18.666667 1.62666667 26.88 4.88s15.28 7.76 21.2 13.52 10.533333 12.5066667 13.84 20.24 4.96 16.08 4.96 25.04-1.653333 17.3066667-4.96 25.04-7.92 14.48-13.84 20.24-12.986667 10.266667-21.2 13.52-17.173333 4.88-26.88 4.88c-9.813333 0-18.8-1.626667-26.96-4.88s-15.173333-7.76-21.04-13.52-10.453333-12.5066667-13.76-20.24-4.96-16.08-4.96-25.04z"/><path id="l" d="m1004.68 63.68c0 4.8.90667 9.2266667 2.72 13.28s4.26667 7.5733333 7.36 10.56 6.69333 5.3066667 10.8 6.96 8.45333 2.48 13.04 2.48 8.93333-.8266667 13.04-2.48 7.73333-3.9733333 10.88-6.96 5.62667-6.5066667 7.44-10.56 2.72-8.48 2.72-13.28-.90667-9.2266667-2.72-13.28-4.29333-7.5733333-7.44-10.56-6.77333-5.3066667-10.88-6.96-8.45333-2.48-13.04-2.48-8.93333.8266667-13.04 2.48-7.70667 3.9733333-10.8 6.96-5.54667 6.5066667-7.36 10.56-2.72 8.48-2.72 13.28zm-32.8 0c0-8.96 1.653333-17.3066667 4.96-25.04s7.893333-14.48 13.76-20.24 12.88-10.26666667 21.04-13.52 17.14667-4.88 26.96-4.88c9.70667 0 18.66667 1.62666667 26.88 4.88s15.28 7.76 21.2 13.52 10.53333 12.5066667 13.84 20.24 4.96 16.08 4.96 25.04-1.65333 17.3066667-4.96 25.04-7.92 14.48-13.84 20.24-12.98667 10.266667-21.2 13.52-17.17333 4.88-26.88 4.88c-9.81333 0-18.8-1.626667-26.96-4.88s-15.173333-7.76-21.04-13.52-10.453333-12.5066667-13.76-20.24-4.96-16.08-4.96-25.04z"/><path id="m" d="m1159.68 97.44h7.2c5.44 0 10.29333-.8533333 14.56-2.56s7.86667-4.0533333 10.8-7.04 5.17333-6.5333333 6.72-10.64 2.32-8.6133333 2.32-13.52c0-4.8-.8-9.28-2.4-13.44s-3.86667-7.7333333-6.8-10.72-6.53333-5.3333333-10.8-7.04-9.06667-2.56-14.4-2.56h-7.2zm-31.36-94.08h46.4c8.21333 0 15.92 1.65333333 23.12 4.96 7.2 3.3066667 13.49333 7.7066667 18.88 13.2s9.62667 11.8933333 12.72 19.2 4.64 14.96 4.64 22.96c0 7.8933333-1.52 15.4933333-4.56 22.8s-7.25333 13.733333-12.64 19.28-11.68 9.973333-18.88 13.28-14.96 4.96-23.28 4.96h-46.4z"/></defs><g fill="none" fill-rule="evenodd"><g fill="#6b8c91"><path fill-rule="nonzero" d="M215.405908 0c1.984962 0 3.594092 1.60431298 3.594092 3.58333333 0 1.97902036-1.60913 3.58333334-3.594092 3.58333334h-211.8118161c-1.98496214 0-3.5940919-1.60431298-3.5940919-3.58333334 0-1.97902035 1.60912976-3.58333333 3.5940919-3.58333333zM20.1317389 17.9166666l178.5065641.2388922c1.984961.0026564 3.591929 1.6091214 3.589268 3.5881399-.002667 1.9790186-1.613956 3.5811767-3.598916 3.5785236l-178.5065646-.2388922c-1.9849604-.0026564-3.5919288-1.6091214-3.5892677-3.5881399.0026677-1.9790186 1.6139559-3.5811767 3.5989162-3.5785236zM174.672867 35.8333333c1.984962 0 3.594091 1.604313 3.594091 3.5833334 0 1.9790203-1.609129 3.5833333-3.594091 3.5833333h-130.8249458c-1.9849621 0-3.5940919-1.604313-3.5940919-3.5833333 0-1.9790204 1.6091298-3.5833334 3.5940919-3.5833334z" transform="translate(26 232)"/><path fill-rule="nonzero" d="m3.59455944.00004231 49.84511426.2434287c1.9757211.00964714 3.5696962 1.65196336 3.5602848 3.66821595-.009495 2.01625258-1.6187968 3.6429277-3.5945179 3.63332324l-49.84511427-.24342869c-1.97572114-.00964714-3.56969625-1.65196336-3.56028487-3.66821595.00949504-2.01625258 1.61879683-3.6429277 3.59451798-3.63332325zM52.9184696 38.4551364c1.9756871-.0152743 3.5894313 1.6068108 3.6045035 3.6230286.0148625 2.0162178-1.5746149 3.6630676-3.550302 3.678342l-31.4811248.243386c-1.975687.0152744-3.5894313-1.6068108-3.6045034-3.6230286-.0148625-2.0162178 1.5746149-3.6630676 3.550302-3.678342z" transform="translate(213 134)"/><path fill-rule="nonzero" d="M42.0272221.0000712c2.00199-.01231378 3.6351308 1.57411542 3.6477951 3.54346084.0125179 1.96934542-1.6002085 3.575856-3.6021986 3.58824182l-38.42495104.23779776c-2.00199007.01231379-3.63513082-1.57411542-3.64779518-3.54346084-.0125179-1.96934542 1.60020858-3.575856 3.60219866-3.58824182zM54.3750046 38.8682283c2.0020297 0 3.6249954 1.5965015 3.6249954 3.5658859 0 1.9693843-1.6229657 3.5658858-3.6249954 3.5658858h-42.7749455c-2.00202963 0-3.62499535-1.5965015-3.62499535-3.5658858 0-1.9693844 1.62296572-3.5658859 3.62499535-3.5658859z" transform="translate(0 156)"/></g><g transform="translate(53)"><path fill="#1f303a" fill-rule="nonzero" d="m88.2725948 200.974569v91.025431h-9.6209913v-91.025431z"/><g transform="translate(.481 158.097)"><path fill="#55767d" d="m81.6873508.95816243.171841 49.34536507h-79.35619567z"/><path fill="#335056" d="m160.481731.95816243.171841 49.34536507h-79.3561959z" transform="matrix(-1 0 0 1 241.951 0)"/><g fill="#1f303a"><path fill-rule="nonzero" d="m82.2594752 0 82.2594748 51.2616899h-164.51895zm0 8.476863-57.1255976 35.5986087h114.2507144z"/><path d="m82.2594752 34.0147662 82.2594748 17.2469237h-164.51895z"/><path fill-rule="nonzero" d="m82.2594752 34.0147662 82.2594748 17.2469237h-164.51895zm0 7.3438359-12.9589942 2.7168696h25.9175073z"/><path d="m81.2973761 23.4749795 50.5102039 27.7867104h-101.020408z"/><path fill-rule="nonzero" d="m81.2973761 23.4749795 50.5102039 27.7867104h-101.020408zm0 8.2095357-22.5241837 12.3909565h45.0478866z"/></g></g><g transform="translate(0 130.31)"><path fill="#83a3a8" d="m82.0875974 1.91632486.1718778 39.76374074h-79.37317782z"/><path fill="#45666d" d="m160.979726 1.91632486.171877 39.76374074h-79.3731773z" transform="matrix(-1 0 0 1 242.93 0)"/><g fill="#1f303a" fill-rule="nonzero"><path d="m82.2594752 0 82.2594748 42.1591468h-164.51895zm0 8.081621-52.4695189 26.8913076h104.9385567z"/><path d="m84.7846871 8.32926277 47.2484529 19.52719783c3.680788 1.5212241 5.426395 5.7260792 3.89892 9.3918067-1.117972 2.6829808-3.747891 4.4317983-6.664657 4.4317983h-94.4969054c-3.9851451 0-7.2157435-3.2173795-7.2157435-7.1862182 0-2.9048307 1.7560028-5.5239884 4.4500068-6.6373868l47.2484529-19.52719783c1.77062-.73177523 3.7608533-.73177523 5.5314733 0zm-2.7657367 6.63738683-47.2484528 19.5271978h94.4969054z"/></g></g><g transform="translate(21.166 97.254)"><path fill="#83a3a8" d="m61.4451752 1.91632486.1291688 36.88925344h-59.65014575z"/><path fill="#45666d" d="m120.614271 1.91632486.129169 36.88925344h-59.6501455z" transform="matrix(-1 0 0 1 181.837 0)"/><g fill="#1f303a" fill-rule="nonzero"><path d="m61.8148688 0 61.8148692 39.2846596h-123.629738zm0 8.52429204-37.0942128 23.57414926h74.1879446z"/><path d="m64.3989732 8.40386182 32.7849867 16.82773948c3.5423561 1.8182057 4.9340011 6.1520497 3.1083251 9.6799115-1.2375458 2.3913825-3.7126492 3.8940655-6.4140039 3.8940655h-65.5699733c-3.9851451 0-7.2157435-3.2173794-7.2157435-7.1862182 0-2.6903013 1.508857-5.1552771 3.9100647-6.3877588l32.7849867-16.82773948c2.074153-1.06461248 4.5372045-1.06461248 6.6113575 0zm-3.3056787 6.38775888-32.7849867 16.8277394h65.5699733z"/></g></g><g transform="translate(21.166 65.155)"><path fill="#83a3a8" d="m61.4451752 1.91632486.1291688 35.45200984h-59.65014575z"/><path fill="#45666d" d="m120.614271 1.91632486.129169 35.45200984h-59.6501455z" transform="matrix(-1 0 0 1 181.837 0)"/><path fill="#1f303a" fill-rule="nonzero" d="m61.8148688 0 61.8148692 37.8474159h-123.629738zm-.000481 8.43518294-36.3004811 22.22601476h72.6014432z"/></g><g transform="translate(57.726)"><path fill="#1f303a" fill-rule="nonzero" d="m26.0145773 0v66.5922888h-1v-66.5922888z"/><path fill="#82a3a8" d="m24.9939072.05801374.0206701 66.05519376h-25.0145773z"/><path fill="#36575c" d="m50.5102041.16187705-.0573126 65.95133045h-25.0145772z" transform="matrix(-1 0 0 1 75.949 0)"/><path fill="#1d363b" d="m37.1152757 35.3397252 13.3949284 14.4847211-25.0126982 16.3175342z" transform="matrix(-1 0 0 1 76.008 0)"/><path fill="#243d42" d="m11.6196488 35.3397252 13.3949285 14.4847211-25.0126982 16.3175342z"/></g></g><g fill-rule="nonzero"><g transform="translate(1275.9 185.82)"><use xlink:href="#a" fill="#fff"/><use xlink:href="#a" fill="#1f303a"/></g><g transform="translate(1275.9 185.82)"><use xlink:href="#b" fill="#fff"/><use xlink:href="#b" fill="#1f303a"/></g><g transform="translate(1275.9 185.82)"><use xlink:href="#c" fill="#fff"/><use xlink:href="#c" fill="#1f303a"/></g><g transform="translate(1275.9 185.82)"><use xlink:href="#d" fill="#fff"/><use xlink:href="#d" fill="#1f303a"/></g><g transform="translate(332.64 53.6)"><use xlink:href="#e" fill="#fff"/><use xlink:href="#e" fill="#1f303a"/><use xlink:href="#f" fill="#fff"/><use xlink:href="#f" fill="#1f303a"/><use xlink:href="#g" fill="#fff"/><use xlink:href="#g" fill="#1f303a"/><use xlink:href="#h" fill="#fff"/><use xlink:href="#h" fill="#1f303a"/><use xlink:href="#i" fill="#fff"/><use xlink:href="#i" fill="#1f303a"/><use xlink:href="#j" fill="#fff"/><use xlink:href="#j" fill="#1f303a"/><use xlink:href="#k" fill="#fff"/><use xlink:href="#k" fill="#1f303a"/><use xlink:href="#l" fill="#fff"/><use xlink:href="#l" fill="#1f303a"/><use xlink:href="#m" fill="#fff"/><use xlink:href="#m" fill="#1f303a"/></g></g></g></svg>
