<svg xmlns="http://www.w3.org/2000/svg" viewBox="0 0 98 129"><g fill="none" fill-rule="evenodd"><path fill="#6b8c91" fill-rule="nonzero" d="M94.7610963 0c.8732221 0 1.5811084.70816635 1.5811084 1.58173381 0 .87356747-.7078863 1.58173382-1.5811084 1.58173382h-93.17998791c-.87322205 0-1.58110839-.70816635-1.58110839-1.58173382 0-.87356746.70788634-1.58173381 1.58110839-1.58173381zM8.85632929 7.90866904l78.52838351.10545038c.8732213.00117257 1.5801568.71028884 1.5789861 1.58385552-.0011735.87356666-.7100094 1.58078186-1.5832307 1.57961076l-78.52838349-.1054504c-.87322127-.0011726-1.58015679-.7102889-1.57898613-1.58385554.00117356-.87356668.71000944-1.58078183 1.58323071-1.57961072zM76.8418679 15.8173381c.873222 0 1.5811084.7081664 1.5811084 1.5817339 0 .8735674-.7078864 1.5817338-1.5811084 1.5817338h-57.5523455c-.8732221 0-1.5811084-.7081664-1.5811084-1.5817338 0-.8735675.7078863-1.5817339 1.5811084-1.5817339z" transform="translate(.724 102.075)"/><g transform="translate(14.005 .025)"><path fill="#1f303a" fill-rule="nonzero" d="m37.4195653 88.4461063v40.0705897h-4.2162891v-40.0705897z"/><g transform="translate(.043 69.993)"><path fill="#55767d" d="m34.701635 0 .0753074 21.7224777h-34.7769424z"/><path fill="#335056" d="m69.2323681 0 .0753074 21.7224777h-34.7769424z" transform="matrix(-1 0 0 1 103.838 0)"/></g><g transform="translate(0 58.182)"><path fill="#83a3a8" d="m34.7090612 0 .0753234 17.5045209h-34.7843846z"/><path fill="#45666d" d="m69.2826313 0 .0753235 17.5045209h-34.7843846z" transform="matrix(-1 0 0 1 103.932 0)"/></g><g transform="translate(8.854 43.63)"><path fill="#83a3a8" d="m26.0843854 0 .0566067 16.2391338h-26.1409921z"/><path fill="#45666d" d="m52.014563 0 .0566067 16.2391338h-26.1409921z" transform="matrix(-1 0 0 1 78.001 0)"/></g><g transform="translate(8.854 29.5)"><path fill="#83a3a8" d="m26.0843854 0 .0566067 15.6064403h-26.1409921z"/><path fill="#45666d" d="m52.014563 0 .0566067 15.6064403h-26.1409921z" transform="matrix(-1 0 0 1 78.001 0)"/></g><g transform="translate(24.033)"><path fill="#82a3a8" d="m10.9532931 0 .0090584 29.0783638h-10.9623515z"/><path fill="#36575c" d="m22.1355175.04572199-.0251166 29.03264181h-10.9623515z" transform="matrix(-1 0 0 1 33.284 0)"/></g></g></g></svg>
