<svg xmlns="http://www.w3.org/2000/svg"
    xmlns:xlink="http://www.w3.org/1999/xlink" viewBox="0 0 1567 292">
    <defs>
        <path id="b" d="M107.3,49.5 L98.5,24.4 L89.7,49.5 L107.3,49.5 Z M112.5,64.4 L84.5,64.4 L80,77.5 L59.1,77.5 L87.8,2.1 L109.2,2.1 L137.9,77.5 L117,77.5 L112.5,64.4 Z"/>
        <path id="c" d="M176.1,62.3 L180.4,62.3 C185.333333,62.3 188.866667,61.6666667 191,60.4 C193.133333,59.1333333 194.2,57.1 194.2,54.3 C194.2,51.5 193.133333,49.4666667 191,48.2 C188.866667,46.9333333 185.333333,46.3 180.4,46.3 L176.1,46.3 L176.1,62.3 Z M176.1,31.7 L179.7,31.7 C185.833333,31.7 188.9,29.2666667 188.9,24.4 C188.9,19.5333333 185.833333,17.1 179.7,17.1 L176.1,17.1 L176.1,31.7 Z M156.5,2.1 L185.7,2.1 C192.633333,2.1 197.9,3.76666667 201.5,7.1 C205.1,10.4333333 206.9,15.2333333 206.9,21.5 C206.9,25.3 206.216667,28.45 204.85,30.95 C203.483333,33.45 201.4,35.5666667 198.6,37.3 C201.4,37.8333333 203.783333,38.65 205.75,39.75 C207.716667,40.85 209.316667,42.2 210.55,43.8 C211.783333,45.4 212.666667,47.2 213.2,49.2 C213.733333,51.2 214,53.3333333 214,55.6 C214,59.1333333 213.383333,62.2666667 212.15,65 C210.916667,67.7333333 209.183333,70.0333333 206.95,71.9 C204.716667,73.7666667 202,75.1666667 198.8,76.1 C195.6,77.0333333 192,77.5 188,77.5 L156.5,77.5 L156.5,2.1 Z"/>
        <path id="d" d="M277.1,21.4 C274.966667,19.6666667 272.833333,18.3833333 270.7,17.55 C268.566667,16.7166667 266.5,16.3 264.5,16.3 C261.966667,16.3 259.9,16.9 258.3,18.1 C256.7,19.3 255.9,20.8666667 255.9,22.8 C255.9,24.1333333 256.3,25.2333333 257.1,26.1 C257.9,26.9666667 258.95,27.7166667 260.25,28.35 C261.55,28.9833333 263.016667,29.5333333 264.65,30 C266.283333,30.4666667 267.9,30.9666667 269.5,31.5 C275.9,33.6333333 280.583333,36.4833333 283.55,40.05 C286.516667,43.6166667 288,48.2666667 288,54 C288,57.8666667 287.35,61.3666667 286.05,64.5 C284.75,67.6333333 282.85,70.3166667 280.35,72.55 C277.85,74.7833333 274.783333,76.5166667 271.15,77.75 C267.516667,78.9833333 263.4,79.6 258.8,79.6 C249.266667,79.6 240.433333,76.7666667 232.3,71.1 L240.7,55.3 C243.633333,57.9 246.533333,59.8333333 249.4,61.1 C252.266667,62.3666667 255.1,63 257.9,63 C261.1,63 263.483333,62.2666667 265.05,60.8 C266.616667,59.3333333 267.4,57.6666667 267.4,55.8 C267.4,54.6666667 267.2,53.6833333 266.8,52.85 C266.4,52.0166667 265.733333,51.25 264.8,50.55 C263.866667,49.85 262.65,49.2 261.15,48.6 C259.65,48 257.833333,47.3333333 255.7,46.6 C253.166667,45.8 250.683333,44.9166667 248.25,43.95 C245.816667,42.9833333 243.65,41.7 241.75,40.1 C239.85,38.5 238.316667,36.4833333 237.15,34.05 C235.983333,31.6166667 235.4,28.5333333 235.4,24.8 C235.4,21.0666667 236.016667,17.6833333 237.25,14.65 C238.483333,11.6166667 240.216667,9.01666667 242.45,6.85 C244.683333,4.68333333 247.416667,3 250.65,1.8 C253.883333,0.6 257.5,0 261.5,0 C265.233333,0 269.133333,0.516666667 273.2,1.55 C277.266667,2.58333333 281.166667,4.1 284.9,6.1 L277.1,21.4 Z"/>
        <path id="f" d="M177.56,63.68 C177.56,68.48 178.466667,72.9066667 180.28,76.96 C182.093333,81.0133333 184.546667,84.5333333 187.64,87.52 C190.733333,90.5066667 194.333333,92.8266667 198.44,94.48 C202.546667,96.1333333 206.893333,96.96 211.48,96.96 C216.066667,96.96 220.413333,96.1333333 224.52,94.48 C228.626667,92.8266667 232.253333,90.5066667 235.4,87.52 C238.546667,84.5333333 241.026667,81.0133333 242.84,76.96 C244.653333,72.9066667 245.56,68.48 245.56,63.68 C245.56,58.88 244.653333,54.4533333 242.84,50.4 C241.026667,46.3466667 238.546667,42.8266667 235.4,39.84 C232.253333,36.8533333 228.626667,34.5333333 224.52,32.88 C220.413333,31.2266667 216.066667,30.4 211.48,30.4 C206.893333,30.4 202.546667,31.2266667 198.44,32.88 C194.333333,34.5333333 190.733333,36.8533333 187.64,39.84 C184.546667,42.8266667 182.093333,46.3466667 180.28,50.4 C178.466667,54.4533333 177.56,58.88 177.56,63.68 Z M144.76,63.68 C144.76,54.72 146.413333,46.3733333 149.72,38.64 C153.026667,30.9066667 157.613333,24.16 163.48,18.4 C169.346667,12.64 176.36,8.13333333 184.52,4.88 C192.68,1.62666667 201.666667,0 211.48,0 C221.186667,0 230.146667,1.62666667 238.36,4.88 C246.573333,8.13333333 253.64,12.64 259.56,18.4 C265.48,24.16 270.093333,30.9066667 273.4,38.64 C276.706667,46.3733333 278.36,54.72 278.36,63.68 C278.36,72.64 276.706667,80.9866667 273.4,88.72 C270.093333,96.4533333 265.48,103.2 259.56,108.96 C253.64,114.72 246.573333,119.226667 238.36,122.48 C230.146667,125.733333 221.186667,127.36 211.48,127.36 C201.666667,127.36 192.68,125.733333 184.52,122.48 C176.36,119.226667 169.346667,114.72 163.48,108.96 C157.613333,103.2 153.026667,96.4533333 149.72,88.72 C146.413333,80.9866667 144.76,72.64 144.76,63.68 Z"/>
        <path id="g" d="M332.56,57.28 L338.48,57.28 C344.666667,57.28 349.413333,56 352.72,53.44 C356.026667,50.88 357.68,47.2 357.68,42.4 C357.68,37.6 356.026667,33.92 352.72,31.36 C349.413333,28.8 344.666667,27.52 338.48,27.52 L332.56,27.52 L332.56,57.28 Z M401.52,124 L362.48,124 L332.56,77.6 L332.56,124 L301.2,124 L301.2,3.36 L350,3.36 C356.72,3.36 362.586667,4.34666667 367.6,6.32 C372.613333,8.29333333 376.746667,10.9866667 380,14.4 C383.253333,17.8133333 385.706667,21.76 387.36,26.24 C389.013333,30.72 389.84,35.52 389.84,40.64 C389.84,49.8133333 387.626667,57.2533333 383.2,62.96 C378.773333,68.6666667 372.24,72.5333333 363.6,74.56 L401.52,124 Z"/>
        <path id="k" d="M853.68,63.68 C853.68,68.48 854.586667,72.9066667 856.4,76.96 C858.213333,81.0133333 860.666667,84.5333333 863.76,87.52 C866.853333,90.5066667 870.453333,92.8266667 874.56,94.48 C878.666667,96.1333333 883.013333,96.96 887.6,96.96 C892.186667,96.96 896.533333,96.1333333 900.64,94.48 C904.746667,92.8266667 908.373333,90.5066667 911.52,87.52 C914.666667,84.5333333 917.146667,81.0133333 918.96,76.96 C920.773333,72.9066667 921.68,68.48 921.68,63.68 C921.68,58.88 920.773333,54.4533333 918.96,50.4 C917.146667,46.3466667 914.666667,42.8266667 911.52,39.84 C908.373333,36.8533333 904.746667,34.5333333 900.64,32.88 C896.533333,31.2266667 892.186667,30.4 887.6,30.4 C883.013333,30.4 878.666667,31.2266667 874.56,32.88 C870.453333,34.5333333 866.853333,36.8533333 863.76,39.84 C860.666667,42.8266667 858.213333,46.3466667 856.4,50.4 C854.586667,54.4533333 853.68,58.88 853.68,63.68 Z M820.88,63.68 C820.88,54.72 822.533333,46.3733333 825.84,38.64 C829.146667,30.9066667 833.733333,24.16 839.6,18.4 C845.466667,12.64 852.48,8.13333333 860.64,4.88 C868.8,1.62666667 877.786667,0 887.6,0 C897.306667,0 906.266667,1.62666667 914.48,4.88 C922.693333,8.13333333 929.76,12.64 935.68,18.4 C941.6,24.16 946.213333,30.9066667 949.52,38.64 C952.826667,46.3733333 954.48,54.72 954.48,63.68 C954.48,72.64 952.826667,80.9866667 949.52,88.72 C946.213333,96.4533333 941.6,103.2 935.68,108.96 C929.76,114.72 922.693333,119.226667 914.48,122.48 C906.266667,125.733333 897.306667,127.36 887.6,127.36 C877.786667,127.36 868.8,125.733333 860.64,122.48 C852.48,119.226667 845.466667,114.72 839.6,108.96 C833.733333,103.2 829.146667,96.4533333 825.84,88.72 C822.533333,80.9866667 820.88,72.64 820.88,63.68 Z"/>
        <path id="l" d="M1004.68,63.68 C1004.68,68.48 1005.58667,72.9066667 1007.4,76.96 C1009.21333,81.0133333 1011.66667,84.5333333 1014.76,87.52 C1017.85333,90.5066667 1021.45333,92.8266667 1025.56,94.48 C1029.66667,96.1333333 1034.01333,96.96 1038.6,96.96 C1043.18667,96.96 1047.53333,96.1333333 1051.64,94.48 C1055.74667,92.8266667 1059.37333,90.5066667 1062.52,87.52 C1065.66667,84.5333333 1068.14667,81.0133333 1069.96,76.96 C1071.77333,72.9066667 1072.68,68.48 1072.68,63.68 C1072.68,58.88 1071.77333,54.4533333 1069.96,50.4 C1068.14667,46.3466667 1065.66667,42.8266667 1062.52,39.84 C1059.37333,36.8533333 1055.74667,34.5333333 1051.64,32.88 C1047.53333,31.2266667 1043.18667,30.4 1038.6,30.4 C1034.01333,30.4 1029.66667,31.2266667 1025.56,32.88 C1021.45333,34.5333333 1017.85333,36.8533333 1014.76,39.84 C1011.66667,42.8266667 1009.21333,46.3466667 1007.4,50.4 C1005.58667,54.4533333 1004.68,58.88 1004.68,63.68 Z M971.88,63.68 C971.88,54.72 973.533333,46.3733333 976.84,38.64 C980.146667,30.9066667 984.733333,24.16 990.6,18.4 C996.466667,12.64 1003.48,8.13333333 1011.64,4.88 C1019.8,1.62666667 1028.78667,0 1038.6,0 C1048.30667,0 1057.26667,1.62666667 1065.48,4.88 C1073.69333,8.13333333 1080.76,12.64 1086.68,18.4 C1092.6,24.16 1097.21333,30.9066667 1100.52,38.64 C1103.82667,46.3733333 1105.48,54.72 1105.48,63.68 C1105.48,72.64 1103.82667,80.9866667 1100.52,88.72 C1097.21333,96.4533333 1092.6,103.2 1086.68,108.96 C1080.76,114.72 1073.69333,119.226667 1065.48,122.48 C1057.26667,125.733333 1048.30667,127.36 1038.6,127.36 C1028.78667,127.36 1019.8,125.733333 1011.64,122.48 C1003.48,119.226667 996.466667,114.72 990.6,108.96 C984.733333,103.2 980.146667,96.4533333 976.84,88.72 C973.533333,80.9866667 971.88,72.64 971.88,63.68 Z"/>
        <path id="m" d="M1159.68,97.44 L1166.88,97.44 C1172.32,97.44 1177.17333,96.5866667 1181.44,94.88 C1185.70667,93.1733333 1189.30667,90.8266667 1192.24,87.84 C1195.17333,84.8533333 1197.41333,81.3066667 1198.96,77.2 C1200.50667,73.0933333 1201.28,68.5866667 1201.28,63.68 C1201.28,58.88 1200.48,54.4 1198.88,50.24 C1197.28,46.08 1195.01333,42.5066667 1192.08,39.52 C1189.14667,36.5333333 1185.54667,34.1866667 1181.28,32.48 C1177.01333,30.7733333 1172.21333,29.92 1166.88,29.92 L1159.68,29.92 L1159.68,97.44 Z M1128.32,3.36 L1174.72,3.36 C1182.93333,3.36 1190.64,5.01333333 1197.84,8.32 C1205.04,11.6266667 1211.33333,16.0266667 1216.72,21.52 C1222.10667,27.0133333 1226.34667,33.4133333 1229.44,40.72 C1232.53333,48.0266667 1234.08,55.68 1234.08,63.68 C1234.08,71.5733333 1232.56,79.1733333 1229.52,86.48 C1226.48,93.7866667 1222.26667,100.213333 1216.88,105.76 C1211.49333,111.306667 1205.2,115.733333 1198,119.04 C1190.8,122.346667 1183.04,124 1174.72,124 L1128.32,124 L1128.32,3.36 Z"/>
        <polygon id="a" points="19.6 2.1 19.6 60.9 43.1 60.9 43.1 77.5 0 77.5 0 2.1"/>
        <polygon id="e" points="0 124 0 3.36 31.36 3.36 89.28 77.12 89.28 3.36 120.48 3.36 120.48 124 89.28 124 31.36 50.24 31.36 124"/>
        <polygon id="h" points="463.56 29.92 463.56 124 432.2 124 432.2 29.92 406.44 29.92 406.44 3.36 489.32 3.36 489.32 29.92"/>
        <polygon id="i" points="537.6 49.92 582.88 49.92 582.88 3.36 614.24 3.36 614.24 124 582.88 124 582.88 74.24 537.6 74.24 537.6 124 506.24 124 506.24 3.36 537.6 3.36"/>
        <polygon id="j" points="662.68 3.36 683.48 81.28 709.08 3.36 734.04 3.36 759.64 81.28 780.44 3.36 813.24 3.36 777.24 124 745.24 124 721.56 54.08 697.88 124 665.88 124 629.88 3.36"/>
    </defs>
    <g fill="none" fill-rule="evenodd" transform="translate(-1 .058)">
        <path fill="#6B8C91" fill-rule="nonzero" d="M215.405908 0C217.39087 0 219 1.60431298 219 3.58333333 219 5.56235369 217.39087 7.16666667 215.405908 7.16666667L3.5940919 7.16666667C1.60912976 7.16666667 0 5.56235369 0 3.58333333 0 1.60431298 1.60912976 0 3.5940919 0L215.405908 0ZM20.1317389 17.9166666 198.638303 18.1555588C200.623264 18.1582152 202.230232 19.7646802 202.227571 21.7436987 202.224904 23.7227173 200.613615 25.3248754 198.628655 25.3222223L20.1220904 25.0833301C18.13713 25.0806737 16.5301616 23.4742087 16.5328227 21.4951902 16.5354904 19.5161716 18.1467786 17.9140135 20.1317389 17.9166666ZM174.672867 35.8333333C176.657829 35.8333333 178.266958 37.4376463 178.266958 39.4166667 178.266958 41.395687 176.657829 43 174.672867 43L43.8479212 43C41.8629591 43 40.2538293 41.395687 40.2538293 39.4166667 40.2538293 37.4376463 41.8629591 35.8333333 43.8479212 35.8333333L174.672867 35.8333333Z" transform="translate(27 231.942)"/>
        <path fill="#6B8C91" fill-rule="nonzero" d="M3.59455944.0000423129325 53.4396737.243471005C55.4153948.253118146 57.0093699 1.89543437 56.9999585 3.91168696 56.9904635 5.92793954 55.3811617 7.55461466 53.4054406 7.5450102L3.56032633 7.30158151C1.58460519 7.29193437-.00936991811 5.64961815.0000414623426 3.63336556.00953650436 1.61711298 1.61883829-.0095621397 3.59455944.0000423129325ZM52.9184696 38.4551364C54.8941567 38.4398621 56.5079009 40.0619472 56.5229731 42.078165 56.5378356 44.0943828 54.9483582 45.7412326 52.9726711 45.756507L21.4915463 45.999893C19.5158593 46.0151674 17.902115 44.3930822 17.8870429 42.3768644 17.8721804 40.3606466 19.4616578 38.7137968 21.4373449 38.6985224L52.9184696 38.4551364Z" transform="translate(214 133.942)"/>
        <path fill="#6B8C91" fill-rule="nonzero" d="M42.0272221.0000712017232C44.0292121-.0122425841 45.6623529 1.57418662 45.6750172 3.54353204 45.6875351 5.51287746 44.0748087 7.11938804 42.0728186 7.13177386L3.64786756 7.36957162C1.64587749 7.38188541.012736743 5.7954562.0000723819913 3.82611078-.0124455221 1.85676536 1.60028096.250254779 3.60227104.237868959L42.0272221.0000712017232ZM54.3750046 38.8682283C56.3770343 38.8682283 58 40.4647298 58 42.4341142 58 44.4034985 56.3770343 46 54.3750046 46L11.6000591 46C9.59802947 46 7.97506375 44.4034985 7.97506375 42.4341142 7.97506375 40.4647298 9.59802947 38.8682283 11.6000591 38.8682283L54.3750046 38.8682283Z" transform="translate(1 155.942)"/>
        <g transform="translate(54)">
            <polygon fill="#EEE" fill-rule="nonzero" points="88.273 200.917 88.273 291.942 78.652 291.942 78.652 200.917"/>
            <g transform="translate(.481 158.039)">
                <polygon fill="#55767D" points="81.687 .958 81.859 50.304 2.503 50.304"/>
                <polygon fill="#335056" points="160.482 .958 160.654 50.304 81.297 50.304" transform="matrix(-1 0 0 1 241.951 0)"/>
                <path fill="#EEE" fill-rule="nonzero" d="M82.2594752,0 L164.51895,51.2616899 L0,51.2616899 L82.2594752,0 Z M82.2594752,8.476863 L25.1338776,44.0754717 L139.384592,44.0754717 L82.2594752,8.476863 Z"/>
            </g>
            <g transform="translate(0 130.252)">
                <polygon fill="#83A3A8" points="82.088 1.916 82.259 41.68 2.886 41.68"/>
                <polygon fill="#45666D" points="160.98 1.916 161.152 41.68 81.778 41.68" transform="matrix(-1 0 0 1 242.93 0)"/>
                <path fill="#EEE" fill-rule="nonzero" d="M82.2594752,0 L164.51895,42.1591468 L0,42.1591468 L82.2594752,0 Z M82.2594752,8.081621 L29.7899563,34.9729286 L134.728513,34.9729286 L82.2594752,8.081621 Z"/>
            </g>
            <g transform="translate(21.166 97.195)">
                <polygon fill="#83A3A8" points="61.445 1.916 61.574 38.806 1.924 38.806"/>
                <polygon fill="#45666D" points="120.614 1.916 120.743 38.806 61.093 38.806" transform="matrix(-1 0 0 1 181.837 0)"/>
                <path fill="#EEE" fill-rule="nonzero" d="M61.8148688,0 L123.629738,39.2846596 L0,39.2846596 L61.8148688,0 Z M61.8148688,8.52429204 L24.720656,32.0984413 L98.9086006,32.0984413 L61.8148688,8.52429204 Z"/>
            </g>
            <g transform="translate(21.166 65.097)">
                <polygon fill="#83A3A8" points="61.445 1.916 61.574 37.368 1.924 37.368"/>
                <polygon fill="#45666D" points="120.614 1.916 120.743 37.368 61.093 37.368" transform="matrix(-1 0 0 1 181.837 0)"/>
                <path fill="#EEE" fill-rule="nonzero" d="M61.8148688,0 L123.629738,37.8474159 L0,37.8474159 L61.8148688,0 Z M61.8143878,8.43518294 L25.5139067,30.6611977 L98.1153499,30.6611977 L61.8143878,8.43518294 Z"/>
            </g>
            <g transform="translate(57.726)">
                <polygon fill="#82A3A8" points="24.994 0 25.015 66.055 0 66.055"/>
                <polygon fill="#36575C" points="50.51 .104 50.453 66.055 25.438 66.055" transform="matrix(-1 0 0 1 75.949 0)"/>
                <polygon fill="#82A3A8" points="37.115 35.282 50.51 49.766 25.498 66.084" transform="matrix(-1 0 0 1 76.008 0)"/>
                <polygon fill="#EEE" points="11.62 35.282 25.015 49.766 .002 66.084"/>
            </g>
        </g>
        <g fill-rule="nonzero" transform="translate(321 11.542)">
            <g transform="translate(955.9 174.22)">
                <use xlink:href="#a" fill="#FFF"/>
                <use xlink:href="#a" fill="#EEE"/>
                <use xlink:href="#b" fill="#FFF"/>
                <use xlink:href="#b" fill="#EEE"/>
                <use xlink:href="#c" fill="#FFF"/>
                <use xlink:href="#c" fill="#EEE"/>
                <use xlink:href="#d" fill="#FFF"/>
                <use xlink:href="#d" fill="#EEE"/>
            </g>
            <g transform="translate(12.64 42)">
                <use xlink:href="#e" fill="#FFF"/>
                <use xlink:href="#e" fill="#EEE"/>
                <use xlink:href="#f" fill="#FFF"/>
                <use xlink:href="#f" fill="#EEE"/>
                <use xlink:href="#g" fill="#FFF"/>
                <use xlink:href="#g" fill="#EEE"/>
                <use xlink:href="#h" fill="#FFF"/>
                <use xlink:href="#h" fill="#EEE"/>
                <use xlink:href="#i" fill="#FFF"/>
                <use xlink:href="#i" fill="#EEE"/>
                <use xlink:href="#j" fill="#FFF"/>
                <use xlink:href="#j" fill="#EEE"/>
                <use xlink:href="#k" fill="#FFF"/>
                <use xlink:href="#k" fill="#EEE"/>
                <use xlink:href="#l" fill="#FFF"/>
                <use xlink:href="#l" fill="#EEE"/>
                <use xlink:href="#m" fill="#FFF"/>
                <use xlink:href="#m" fill="#EEE"/>
            </g>
        </g>
    </g>
</svg>
