<svg xmlns="http://www.w3.org/2000/svg" viewBox="0 0 1389 1493">
    <g fill="none" fill-rule="evenodd" transform="translate(0 .296)">
        <path fill="#6B8C91" fill-rule="nonzero" d="M1096.85969 0C1106.96724 0 1115.16102 8.19606482 1115.16102 18.3064231 1115.16102 28.4167815 1106.96724 36.6128463 1096.85969 36.6128463L18.3013296 36.6128463C8.19378438 36.6128463 0 28.4167815 0 18.3064231 0 8.19606482 8.19378438 0 18.3013296 0L1096.85969 0ZM102.512012 91.5321154 1011.47805 92.7525604C1021.58559 92.7661314 1029.76837 100.97319 1029.75482 111.083539 1029.74123 121.193889 1021.53646 129.378945 1011.42892 129.365391L102.46288 128.144946C92.3553443 128.131375 84.1725657 119.924316 84.186116 109.813967 84.1997 99.7036173 92.4044754 91.5185613 102.512012 91.5321154ZM889.444621 183.064231C899.552166 183.064231 907.74595 191.260296 907.74595 201.370655 907.74595 211.481013 899.552166 219.677078 889.444621 219.677078L223.276222 219.677078C213.168676 219.677078 204.974892 211.481013 204.974892 201.370655 204.974892 191.260296 213.168676 183.064231 223.276222 183.064231L889.444621 183.064231Z" transform="translate(135.7 1181.079)"/>
        <path fill="#6B8C91" fill-rule="nonzero" d="M18.3891114.000212172828 273.387638 1.22085444C283.495067 1.26922881 291.649554 9.50441498 291.601407 19.6146576 291.552832 29.7249002 283.319937 37.881656 273.212507 37.8334957L18.2139811 36.6128534C8.10655154 36.5644791-.0479347946 28.3292929.000212113794 18.2190503.0487870195 8.10880769 8.28168187-.0479481354 18.3891114.000212172828ZM270.721253 192.828399C280.828508 192.751808 289.08413 200.885548 289.161236 210.995616 289.23727 221.105684 281.105793 229.363603 270.998538 229.440195L109.946837 230.660623C99.8395817 230.737214 91.5839601 222.603474 91.5068537 212.493406 91.4308199 202.383338 99.5622968 194.125419 109.669552 194.048827L270.721253 192.828399Z" transform="translate(1086.148 684.364)"/>
        <path fill="#6B8C91" fill-rule="nonzero" d="M212.180697.00036553298C222.288042-.0628505611 230.533197 8.0815056 230.597134 18.191664 230.660333 28.3018223 222.518243 36.5492716 212.410897 36.6128575L18.4168033 37.8336555C8.30945789 37.8968716.0643033458 29.7525155.000365431275 19.6423571-.0628330739 9.53219873 8.07925704 1.28474945 18.1866024 1.22116355L212.180697.00036553298ZM274.520318 199.540386C284.627863 199.540386 292.821648 207.73645 292.821648 217.846809 292.821648 227.957167 284.627863 236.153232 274.520318 236.153232L58.5646281 236.153232C48.4570828 236.153232 40.2632984 227.957167 40.2632984 217.846809 40.2632984 207.73645 48.4570828 199.540386 58.5646281 199.540386L274.520318 199.540386Z" transform="translate(7.59 797.254)"/>
        <g transform="translate(274.79)">
            <polygon fill="#EEE" fill-rule="nonzero" points="447.773 1023.644 447.773 1487.406 398.969 1487.406 398.969 1023.644"/>
            <g transform="translate(2.44 805.187)">
                <polygon fill="#55767D" points="414.368 4.882 415.24 256.29 12.697 256.29"/>
                <polygon fill="#335056" points="814.061 4.882 814.933 256.29 412.39 256.29" transform="matrix(-1 0 0 1 1227.323 0)"/>
                <path fill="#EEE" fill-rule="nonzero" d="M417.270316,0 L834.540632,261.171637 L0,261.171637 L417.270316,0 Z M417.270316,43.1885135 L127.494383,224.558791 L707.043809,224.558791 L417.270316,43.1885135 Z"/>
            </g>
            <g transform="translate(0 663.617)">
                <polygon fill="#83A3A8" points="416.398 9.763 417.27 212.355 14.641 212.355"/>
                <polygon fill="#45666D" points="816.588 9.763 817.459 212.355 414.83 212.355" transform="matrix(-1 0 0 1 1232.29 0)"/>
                <path fill="#EEE" fill-rule="nonzero" d="M417.270316,0 L834.540632,214.795365 L0,214.795365 L417.270316,0 Z M417.270316,41.1748069 L151.112859,178.182519 L683.425333,178.182519 L417.270316,41.1748069 Z"/>
            </g>
            <g transform="translate(107.368 495.198)">
                <polygon fill="#83A3A8" points="311.687 9.763 312.343 197.709 9.761 197.709"/>
                <polygon fill="#45666D" points="611.829 9.763 612.484 197.709 309.903 197.709" transform="matrix(-1 0 0 1 922.387 0)"/>
                <path fill="#EEE" fill-rule="nonzero" d="M313.562781,0 L627.125563,200.150226 L0,200.150226 L313.562781,0 Z M313.562781,43.4301583 L125.398271,163.53738 L501.724852,163.53738 L313.562781,43.4301583 Z"/>
            </g>
            <g transform="translate(107.368 331.66)">
                <polygon fill="#83A3A8" points="311.687 9.763 312.343 190.387 9.761 190.387"/>
                <polygon fill="#45666D" points="611.829 9.763 612.484 190.387 309.903 190.387" transform="matrix(-1 0 0 1 922.387 0)"/>
                <path fill="#EEE" fill-rule="nonzero" d="M313.562781,0 L627.125563,192.827657 L0,192.827657 L313.562781,0 Z M313.560341,42.976159 L129.422123,156.214811 L497.700999,156.214811 L313.560341,42.976159 Z"/>
            </g>
            <g transform="translate(292.821)">
                <polygon fill="#82A3A8" points="126.784 0 126.889 336.543 0 336.543"/>
                <polygon fill="#36575C" points="255.219 .529 254.928 336.543 128.039 336.543" transform="matrix(-1 0 0 1 383.257 0)"/>
                <polygon fill="#82A3A8" points="187.271 179.756 255.219 253.553 128.339 336.689" transform="matrix(-1 0 0 1 383.558 0)"/>
                <polygon fill="#EEE" points="58.942 179.756 126.889 253.553 .01 336.689"/>
            </g>
        </g>
    </g>
</svg>
