<svg xmlns="http://www.w3.org/2000/svg" viewBox="0 0 1389 1493"><g fill="none" fill-rule="evenodd"><g fill-rule="nonzero"><path fill="#1f303a" d="M1096.85969 0c10.10755 0 18.30133 8.19606482 18.30133 18.3064231 0 10.1103584-8.19378 18.3064232-18.30133 18.3064232h-1078.5583604c-10.10754522 0-18.3013296-8.1960648-18.3013296-18.3064232 0-10.11035828 8.19378438-18.3064231 18.3013296-18.3064231zM102.512012 91.5321154l908.966038 1.220445c10.10754.013571 18.29032 8.2206296 18.27677 18.3309786-.01359 10.11035-8.21836 18.295406-18.3259 18.281852l-908.96604-1.220445c-10.1075357-.013571-18.2903143-8.22063-18.276764-18.330979.013584-10.1103497 8.2183594-18.2954057 18.325896-18.2818516zM889.444621 183.064231c10.107545 0 18.301329 8.196065 18.301329 18.306424 0 10.110358-8.193784 18.306423-18.301329 18.306423h-666.168399c-10.107546 0-18.30133-8.196065-18.30133-18.306423 0-10.110359 8.193784-18.306424 18.30133-18.306424z" transform="translate(135.7 1181.374)"/><path fill="#fff" stroke="#1f303a" stroke-width="11" d="m18.3891114.00021217 254.9985266 1.22064227c10.107429.04837437 18.261916 8.28356054 18.213769 18.39380316-.048575 10.1102426-8.28147 18.2669984-18.3889 18.2188381l-254.9985259-1.2206423c-10.10742956-.0483743-18.26191589-8.2835605-18.21376899-18.3938031.04857491-10.11024261 8.28146976-18.26699844 18.38889929-18.21883813zM270.721253 192.828399c10.107255-.076591 18.362877 8.057149 18.439983 18.167217.076034 10.110068-8.055443 18.367987-18.162698 18.444579l-161.051701 1.220428c-10.1072553.076591-18.3628769-8.057149-18.4399833-18.167217-.0760338-10.110068 8.0554431-18.367987 18.1626983-18.444579z" transform="translate(1086.148 684.66)"/><path fill="#fff" stroke="#1f303a" stroke-width="11" d="M212.180697.00036553c10.107345-.06321609 18.3525 8.08114007 18.416437 18.19129847.063199 10.1101583-8.078891 18.3576076-18.186237 18.4211935l-193.9940937 1.220798c-10.10734541.0632161-18.35249995-8.08114-18.41643787-18.1912984-.0631985-10.11015837 8.07889161-18.35760765 18.18623697-18.42119355zM274.520318 199.540386c10.107545 0 18.30133 8.196064 18.30133 18.306423 0 10.110358-8.193785 18.306423-18.30133 18.306423h-215.9556899c-10.1075453 0-18.3013297-8.196065-18.3013297-18.306423 0-10.110359 8.1937844-18.306423 18.3013297-18.306423z" transform="translate(7.59 797.55)"/><path fill="#1f303a" d="m794.70079 129.043576c1.755208-9.95675 11.247381-16.605018 21.201361-14.849321 329.491569 58.116187 573.097849 345.683277 573.097849 684.112457 0 383.668508-310.93824 694.693288-694.5 694.693288-383.561759 0-694.5-311.02478-694.5-694.693288 0-338.232702 243.328177-625.685103 572.572359-684.019561 9.952624-1.763375 19.449919 4.877568 21.212803 14.832962 1.762884 9.955393-4.876211 19.455331-14.828835 21.218706-311.837224 55.250347-542.3536677 327.567784-542.3536677 647.967893 0 363.447788 294.5506727 658.080438 657.8973407 658.080438 363.34667 0 657.89734-294.63265 657.89734-658.080438 0-320.586207-230.77988-593.012268-542.851361-648.055875-9.95398-1.755697-16.600397-11.250511-14.845189-21.207261z"/></g><g transform="translate(289.43)"><path fill="#1f303a" fill-rule="nonzero" d="m433.131468 1023.93927v463.76272h-48.803545v-463.76272z"/><g transform="translate(.496 810.364)"><path fill="#fff" stroke="#1f303a" stroke-width="11" d="m396.205751 9.90949589.818255 235.99871511h-377.8701422z"/><g fill="#1f303a"><path stroke="#1f303a" stroke-width="11" d="m795.898986 9.90949589.818255 235.99871511h-377.870141z" transform="matrix(-1 0 0 1 1201.93 0)"/><path d="m399.693236 109.720252 256.218615 141.569672h-512.43723z"/></g></g><g stroke="#1f303a" stroke-width="11"><g transform="translate(0 673.676)"><path fill="#fff" d="m396.295693 8.9138302.809839 188.1772528h-373.9832255z"/><path fill="#1f303a" d="m796.484768 8.9138302.809838 188.1772528h-373.983225z" transform="matrix(-1 0 0 1 1203.007 0)"/></g><g transform="translate(102.487 505.257)"><path fill="#fff" d="m296.461174 9.88081664.601602 172.56512736h-277.819768z"/><path fill="#1f303a" d="m596.60298 9.88081664.601602 172.56512736h-277.819768z" transform="matrix(-1 0 0 1 902.866 0)"/></g><g transform="translate(102.487 341.72)"><path fill="#fff" d="m296.461833 9.6783748.600163 165.4450002h-277.155027z"/><path fill="#1f303a" d="m596.603639 9.6783748.600163 165.4450002h-277.155027z" transform="matrix(-1 0 0 1 902.866 0)"/></g></g><g transform="translate(279.18)"><path fill="#1f303a" fill-rule="nonzero" d="m128.329396 0v339.279042h-2.440177v-339.279042z"/><g stroke="#1f303a" stroke-width="11"><path fill="#fff" d="m121.293769 30.4711913.093736 300.8669947h-113.43816916z"/><path fill="#1f303a" d="m249.692538 30.9620284-.259891 300.3761576h-113.431461z" transform="matrix(-1 0 0 1 383.257 0)"/></g></g></g></g></svg>
