<svg viewBox="0 0 290 386"
    xmlns="http://www.w3.org/2000/svg">
    <style>
        .shade-02 { fill: #1f303a; }
        .shade-04 { fill: #335056; }
        .shade-05 { fill: #36575c; }
        .shade-06 { fill: #45666d; }
        .shade-07 { fill: #55767d; }
        .shade-08 { fill: #6b8c91; }
        .shade-09 { fill: #83a3a8; }
        @media (prefers-color-scheme: dark) {
            .shade-02 { fill: #eee; }
        }
    </style>
    <g fill="none">
        <path d="m285.2407 304c2.628489 0 4.7593 2.163957 4.7593 4.833333 0 2.669377-2.130811 4.833334-4.7593 4.833334h-280.48140023c-2.62848868 0-4.75929977-2.163957-4.75929977-4.833334 0-2.669376 2.13081109-4.833333 4.75929977-4.833333zm-258.5822329 24.166662 236.3785559.322231c2.628486.003583 4.756435 2.170443 4.752916 4.839817-.003537 2.669374-2.137206 4.830424-4.765693 4.82685l-236.3785555-.322231c-2.6284864-.003583-4.7564354-2.170443-4.7529159-4.839817.0035369-2.669374 2.1372062-4.830424 4.7656925-4.82685zm204.6435019 24.166671c2.628489 0 4.7593 2.163957 4.7593 4.833334 0 2.669376-2.130811 4.833333-4.7593 4.833333h-173.2385116c-2.6284889 0-4.7592998-2.163957-4.7592998-4.833333 0-2.669377 2.1308109-4.833334 4.7592998-4.833334z" class="shade-08"/>
        <g transform="translate(41)">
            <path d="m113.837 265.067v120.933h-12.827v-120.933z" class="shade-02"/>
            <g transform="translate(.13 209.375)">
                <path d="m105.568 0 .229 65.559h-105.797z" class="shade-07"/>
                <path d="m210.615 0 .229 65.559h-105.797z" class="shade-04" transform="matrix(-1 0 0 1 315.891 0)"/>
            </g>
            <g transform="translate(0 173.73)">
                <path d="m105.591 0 .229 52.829h-105.82z" class="shade-09"/>
                <path d="m210.771 0 .229 52.829h-105.82z" class="shade-06" transform="matrix(-1 0 0 1 316.18 0)"/>
            </g>
            <g transform="translate(26.622 129.811)">
                <path d="m79.353 0 .172 49.01h-79.525z" class="shade-09"/>
                <path d="m158.236 0 .172 49.01h-79.525z" class="shade-06" transform="matrix(-1 0 0 1 237.291 0)"/>
            </g>
            <g transform="translate(26.935 87.167)">
                <path d="m79.353 0 .172 47.1h-79.525z" class="shade-09"/>
                <path d="m158.236 0 .172 47.1h-79.525z" class="shade-06" transform="matrix(-1 0 0 1 237.291 0)"/>
            </g>
            <g transform="translate(72.8)">
                <path d="m33.322 0 .027 87.759h-33.349z" class="shade-09"/>
                <path d="m66.715.138-.076 87.621h-33.35z" class="shade-05" transform="matrix(-1 0 0 1 100.005 0)"/>
            </g>
        </g>
    </g>
</svg>
