<svg viewBox="0 0 1371 1488"
    xmlns="http://www.w3.org/2000/svg">
    <style>
        .shade-01 { fill: #1d363b; }
        .shade-02 { fill: #1f303a; }
        .shade-03 { fill: #243d42; }
        .shade-04 { fill: #335056; }
        .shade-05 { fill: #36575c; }
        .shade-06 { fill: #45666d; }
        .shade-07 { fill: #55767d; }
        .shade-08 { fill: #6b8c91; }
        .shade-09 { fill: #83a3a8; }
        @media (prefers-color-scheme: dark) {
            .shade-01 { fill: #83a3a8; }
            .shade-02 { fill: #eee; }
            .shade-03 { fill: #eee; }
        }
    </style>
    <g fill="none">
        <g class="shade-08" transform="translate(-7 113.9131)">
            <path d="m1232.55969 1067.46094c10.10755 0 18.30133 8.19606 18.30133 18.30642s-8.19378 18.30642-18.30133 18.30642h-1078.55836c-10.107546 0-18.30133-8.19606-18.30133-18.30642s8.193784-18.30642 18.30133-18.30642zm-994.347678 91.5321 908.966038 1.22046c10.10754.01357 18.29032 8.22063 18.27679 18.33098-.01361 10.11035-8.21838 18.2954-18.32592 18.28187l-908.96604-1.22047c-10.107536-.01357-18.290314-8.22063-18.276781-18.33097.013601-10.11035 8.218376-18.29541 18.325913-18.28187zm786.932608 91.53213c10.10755 0 18.30133 8.19606 18.30133 18.30642s-8.19378 18.30643-18.30133 18.30643h-666.168398c-10.107546 0-18.30133-8.19607-18.30133-18.30643s8.193784-18.30642 18.30133-18.30642z"/>
            <path d="m1104.53711 570.746938 254.99853 1.220855c10.10743.048374 18.26191 8.28356 18.21398 18.393803-.04879 10.110242-8.28168 18.266998-18.38911 18.21905l-254.99853-1.220854c-10.10743-.048375-18.26191-8.283561-18.21398-18.393804.04879-10.110242 8.28168-18.266998 18.38911-18.21905zm252.33214 192.828399c10.10726-.076591 18.36288 8.057149 18.44051 18.167217.07551 10.110068-8.05597 18.367987-18.16322 18.444579l-161.0517 1.220428c-10.10726.076591-18.36288-8.057149-18.44052-18.167217-.0755-10.110068 8.05598-18.367987 18.16323-18.444579z"/>
            <path d="m219.770697 683.636938c10.107345-.06285 18.3525 8.081506 18.416802 18.191664.062834 10.110158-8.079256 18.357608-18.186602 18.421194l-193.9940937 1.221163c-10.1073454.062851-18.35249995-8.081505-18.4168033-18.191664-.06283307-10.110158 8.079257-18.357607 18.1866024-18.421193zm62.339621 199.540386c10.107545 0 18.30133 8.196064 18.30133 18.306423 0 10.110358-8.193785 18.306423-18.30133 18.306423h-215.9556899c-10.1075453 0-18.3013297-8.196065-18.3013297-18.306423 0-10.110359 8.1937844-18.306423 18.3013297-18.306423z"/>
        </g>
        <g transform="translate(267.79)">
            <path d="m447.772532 1023.93927v463.76272h-48.803546v-463.76272z" class="shade-02"/>
            <g transform="translate(2.44 805.483)">
                <path d="m414.368151 4.88171284.871683 251.40821116h-402.5431084z" class="shade-07"/>
                <path d="m814.061356 4.88171284.871683 251.40821116h-402.543109z" class="shade-04" transform="matrix(-1 0 0 1 1227.323 0)"/>
                <path d="m417.270316 0 417.270316 261.171637h-834.540632zm0 43.1885135-289.775933 181.3702775h579.549426z" class="shade-02"/>
            </g>
            <g transform="translate(0 663.913)">
                <path d="m416.398447 9.76342568.871869 202.59108232h-402.6292523z" class="shade-09"/>
                <path d="m816.587992 9.76342568.871869 202.59108232h-402.629252z" class="shade-06" transform="matrix(-1 0 0 1 1232.2904 0)"/>
                <path d="m417.270316 0 417.270316 214.795365h-834.540632zm0 41.1748069-266.157457 137.0077121h532.312474z" class="shade-02"/>
            </g>
            <g transform="translate(107.368 495.494)">
                <path d="m311.68747 9.76342568.655223 187.94594432h-302.58198386z" class="shade-09"/>
                <path d="m611.829262 9.76342568.655223 187.94594432h-302.581984z" class="shade-06" transform="matrix(-1 0 0 1 922.387 0)"/>
                <path d="m313.562781 0 313.562782 200.150226h-627.125563zm0 43.4301583-188.16451 120.1072217h376.326581z" class="shade-02"/>
            </g>
            <g transform="translate(107.368 331.957)">
                <path d="m311.68747 9.76342568.655223 180.62337532h-302.58198386z" class="shade-09"/>
                <path d="m611.829262 9.76342568.655223 180.62337532h-302.581984z" class="shade-06" transform="matrix(-1 0 0 1 922.387 0)"/>
                <path d="m313.562781 0 313.562782 192.827657h-627.125563zm-.00244 42.976159-184.138218 113.238652h368.278876z" class="shade-02"/>
            </g>
            <g transform="translate(292.821)">
                <path d="m129.329396 0v339.279042h-2.440177v-339.279042z" class="shade-02"/>
                <path d="m126.784368.29557246.104851 336.54261354h-126.889219z" class="shade-09"/>
                <path d="m256.218328.8247425-.290724 336.0134435h-126.889219z" class="shade-05" transform="matrix(-1 0 0 1 385.2568 0)"/>
                <path d="m188.271811 180.051299 67.947261 73.797769-126.879687 83.135712z" class="shade-01" transform="matrix(-1 0 0 1 385.5584 0)"/>
                <path d="m58.9419581 180.051299 67.9472609 73.797769-126.87968706 83.135712z" class="shade-03"/>
            </g>
        </g>
    </g>
</svg>
