<svg viewBox="0 0 1963 2052"
    xmlns="http://www.w3.org/2000/svg">
    <g fill="none">
        <g transform="translate(84 132)">
            <path d="m1688.70083 173.537295c1.04971 1.616695 1.04971 3.699791 0 5.316486l-41.79716 64.373069c-1.04971 1.616696-1.04971 3.699791 0 5.316487l41.79716 64.373068c1.46801 2.260922.82535 5.283896-1.43542 6.752004-1.61658 1.049785-3.69954 1.049785-5.31612 0l-64.36865-41.800027c-1.61658-1.049785-3.69954-1.049785-5.31612 0l-64.36865 41.800027c-2.26077 1.468107-5.28353.825404-6.75154-1.435517-1.04971-1.616695-1.04971-3.699791 0-5.316487l41.79716-64.373068c1.04971-1.616696 1.04971-3.699791 0-5.316487l-41.79716-64.373069c-1.46801-2.260921-.82535-5.283896 1.43542-6.752003 1.61658-1.049785 3.69953-1.049785 5.31612 0l64.36865 41.800026c1.61658 1.049786 3.69954 1.049786 5.31612 0l64.36865-41.800026c2.26077-1.468107 5.28353-.825404 6.75154 1.435517z" fill="#83a3a8" transform="matrix(.70710678 .70710678 -.70710678 .70710678 646.8669 -1069.904643)"/>
            <path d="m1847.32594 256.515949c1.04971 1.616695 1.04971 3.699791 0 5.316486l-41.79716 64.373069c-1.04971 1.616696-1.04971 3.699791 0 5.316487l41.79716 64.373069c1.468 2.260921.82535 5.283896-1.43542 6.752003-1.61658 1.049785-3.69954 1.049785-5.31612 0l-64.36865-41.800027c-1.61659-1.049785-3.69954-1.049785-5.31612 0l-64.36865 41.800027c-2.26077 1.468107-5.28354.825404-6.75154-1.435517-1.04972-1.616695-1.04972-3.699791 0-5.316486l41.79715-64.373069c1.04972-1.616696 1.04972-3.699791 0-5.316487l-41.79715-64.373069c-1.46801-2.260921-.82535-5.283896 1.43542-6.752003 1.61658-1.049785 3.69953-1.049785 5.31612 0l64.36865 41.800027c1.61658 1.049785 3.69953 1.049785 5.31612 0l64.36865-41.800027c2.26076-1.468107 5.28353-.825404 6.75154 1.435517z" fill="#45666d" transform="matrix(.70710678 .70710678 -.70710678 .70710678 752.001847 -1157.765658)"/>
            <ellipse cx="126.9" cy="126.909" fill="#83a3a8" rx="126.9" ry="126.909"/>
            <path d="m0 88.3283676v-88.3283676h22.9591136l42.4040771 54.0044794v-54.0044794h22.8419753v88.3283676h-22.8419753l-42.4040771-54.0044794v54.0044794z" fill="#fff" transform="translate(56.832 1170.3852)"/>
            <path d="m0 88.3283676v-88.3283676h22.9591136l42.4040771 54.0044794v-54.0044794h22.8419753v88.3283676h-22.8419753l-42.4040771-54.0044794v54.0044794z" fill="#1f303a" transform="translate(56.832 1170.3852)"/>
            <path d="m42.6383539 52.5987229v-34.7924738l-20.264932 34.7924738zm21.319177 0h10.659588v17.5719564h-10.659588v18.1576883h-21.319177v-18.1576883h-42.6383539v-14.7604434l33.7358399-55.4102359h30.221691z" fill="#fff" transform="translate(155.931 1170.3852)"/>
            <path d="m42.6383539 52.5987229v-34.7924738l-20.264932 34.7924738zm21.319177 0h10.659588v17.5719564h-10.659588v18.1576883h-21.319177v-18.1576883h-42.6383539v-14.7604434l33.7358399-55.4102359h30.221691z" fill="#1f303a" transform="translate(155.931 1170.3852)"/>
            <path d="m22.724837 46.6242577c0 3.9048792.351415 7.4583193 1.054245 10.6603202.70283 3.202001 1.698505 5.9744652 2.987027 8.3173927 1.288522 2.3429276 2.830843 4.1586964 4.626964 5.4473065 1.796121 1.2886102 3.826519 1.9329152 6.091194 1.9329152 2.186582 0 4.197457-.644305 6.032624-1.9329152 1.835167-1.2886101 3.377489-3.1043789 4.626964-5.4473065 1.249476-2.3429275 2.225629-5.1153917 2.928459-8.3173927.70283-3.2020009 1.054245-6.755441 1.054245-10.6603202 0-3.8267816-.351415-7.3606973-1.054245-10.601747-.70283-3.2410498-1.678983-6.013514-2.928459-8.3173927-1.249475-2.3038788-2.791797-4.1001232-4.626964-5.3887333-1.835167-1.2886102-3.846042-1.9329153-6.032624-1.9329153-2.264675 0-4.295073.6443051-6.091194 1.9329153-1.796121 1.2886101-3.338442 3.0848545-4.626964 5.3887333-1.288522 2.3038787-2.284197 5.0763429-2.987027 8.3173927-.70283 3.2410497-1.054245 6.7749654-1.054245 10.601747zm-22.724837 0c0-7.0287826.917583-13.4132601 2.75275-19.1534325 1.835168-5.7401724 4.412211-10.6407958 7.731131-14.7018702 3.318919-4.06107437 7.262576-7.20450213 11.830971-9.43028328s9.624867-3.33867172 15.169415-3.33867172c5.466455 0 10.503404 1.11289057 15.110845 3.33867172s8.551098 5.36920891 11.830972 9.43028328c3.279873 4.0610744 5.837393 8.9616978 7.672561 14.7018702 1.835167 5.7401724 2.75275 12.1246499 2.75275 19.1534325s-.917583 13.4132601-2.75275 19.1534325c-1.835168 5.7401724-4.392688 10.6603202-7.672561 14.7604434-3.279874 4.1001232-7.223531 7.2630753-11.830972 9.4888565-4.607441 2.2257811-9.64439 3.3386717-15.110845 3.3386717-5.544548 0-10.60102-1.1128906-15.169415-3.3386717-4.568395-2.2257812-8.512052-5.3887333-11.830971-9.4888565-3.31892-4.1001232-5.895963-9.020271-7.731131-14.7604434-1.835167-5.7401724-2.75275-12.1246499-2.75275-19.1534325z" fill="#fff" transform="translate(236.2879 1167.808)"/>
            <path d="m22.724837 46.6242577c0 3.9048792.351415 7.4583193 1.054245 10.6603202.70283 3.202001 1.698505 5.9744652 2.987027 8.3173927 1.288522 2.3429276 2.830843 4.1586964 4.626964 5.4473065 1.796121 1.2886102 3.826519 1.9329152 6.091194 1.9329152 2.186582 0 4.197457-.644305 6.032624-1.9329152 1.835167-1.2886101 3.377489-3.1043789 4.626964-5.4473065 1.249476-2.3429275 2.225629-5.1153917 2.928459-8.3173927.70283-3.2020009 1.054245-6.755441 1.054245-10.6603202 0-3.8267816-.351415-7.3606973-1.054245-10.601747-.70283-3.2410498-1.678983-6.013514-2.928459-8.3173927-1.249475-2.3038788-2.791797-4.1001232-4.626964-5.3887333-1.835167-1.2886102-3.846042-1.9329153-6.032624-1.9329153-2.264675 0-4.295073.6443051-6.091194 1.9329153-1.796121 1.2886101-3.338442 3.0848545-4.626964 5.3887333-1.288522 2.3038787-2.284197 5.0763429-2.987027 8.3173927-.70283 3.2410497-1.054245 6.7749654-1.054245 10.601747zm-22.724837 0c0-7.0287826.917583-13.4132601 2.75275-19.1534325 1.835168-5.7401724 4.412211-10.6407958 7.731131-14.7018702 3.318919-4.06107437 7.262576-7.20450213 11.830971-9.43028328s9.624867-3.33867172 15.169415-3.33867172c5.466455 0 10.503404 1.11289057 15.110845 3.33867172s8.551098 5.36920891 11.830972 9.43028328c3.279873 4.0610744 5.837393 8.9616978 7.672561 14.7018702 1.835167 5.7401724 2.75275 12.1246499 2.75275 19.1534325s-.917583 13.4132601-2.75275 19.1534325c-1.835168 5.7401724-4.392688 10.6603202-7.672561 14.7604434-3.279874 4.1001232-7.223531 7.2630753-11.830972 9.4888565-4.607441 2.2257811-9.64439 3.3386717-15.110845 3.3386717-5.544548 0-10.60102-1.1128906-15.169415-3.3386717-4.568395-2.2257812-8.512052-5.3887333-11.830971-9.4888565-3.31892-4.1001232-5.895963-9.020271-7.731131-14.7604434-1.835167-5.7401724-2.75275-12.1246499-2.75275-19.1534325z" fill="#1f303a" transform="translate(236.2879 1167.808)"/>
            <path d="m24.0133586 0 15.2279835 57.0502851 18.7421335-57.0502851h18.2735802l18.7421336 57.0502851 15.2279836-57.0502851h24.013358l-26.356125 88.3283676h-23.4276667l-17.3364736-51.1929664-17.3364735 51.1929664h-23.4276669l-26.3561253-88.3283676z" fill="#fff" transform="translate(1358.16 1170.3852)"/>
            <path d="m24.0133586 0 15.2279835 57.0502851 18.7421335-57.0502851h18.2735802l18.7421336 57.0502851 15.2279836-57.0502851h24.013358l-26.356125 88.3283676h-23.4276667l-17.3364736-51.1929664-17.3364735 51.1929664h-23.4276669l-26.3561253-88.3283676z" fill="#1f303a" transform="translate(1358.16 1170.3852)"/>
            <path d="m12.885217 19.4462984h-12.885217v-19.4462984h35.844331v88.3283676h-22.959114z" fill="#fff" transform="translate(1510.557 1170.3852)"/>
            <path d="m12.885217 19.4462984h-12.885217v-19.4462984h35.844331v88.3283676h-22.959114z" fill="#1f303a" transform="translate(1510.557 1170.3852)"/>
            <path d="m22.724837 46.6242577c0 3.9048792.351415 7.4583193 1.054245 10.6603202.70283 3.202001 1.698505 5.9744652 2.987027 8.3173927 1.288522 2.3429276 2.830843 4.1586964 4.626964 5.4473065 1.796121 1.2886102 3.826519 1.9329152 6.091194 1.9329152 2.186582 0 4.197457-.644305 6.032624-1.9329152 1.835167-1.2886101 3.377489-3.1043789 4.626964-5.4473065 1.249476-2.3429275 2.225629-5.1153917 2.928459-8.3173927.70283-3.2020009 1.054245-6.755441 1.054245-10.6603202 0-3.8267816-.351415-7.3606973-1.054245-10.601747-.70283-3.2410498-1.678983-6.013514-2.928459-8.3173927-1.249475-2.3038788-2.791797-4.1001232-4.626964-5.3887333-1.835167-1.2886102-3.846042-1.9329153-6.032624-1.9329153-2.264675 0-4.295073.6443051-6.091194 1.9329153-1.796121 1.2886101-3.338442 3.0848545-4.626964 5.3887333-1.288522 2.3038787-2.284197 5.0763429-2.987027 8.3173927-.70283 3.2410497-1.054245 6.7749654-1.054245 10.601747zm-22.724837 0c0-7.0287826.917583-13.4132601 2.752751-19.1534325 1.835167-5.7401724 4.41221-10.6407958 7.73113-14.7018702 3.318919-4.06107437 7.262576-7.20450213 11.830971-9.43028328s9.624867-3.33867172 15.169415-3.33867172c5.466455 0 10.503404 1.11289057 15.110845 3.33867172s8.551098 5.36920891 11.830972 9.43028328c3.279873 4.0610744 5.837393 8.9616978 7.672561 14.7018702 1.835167 5.7401724 2.752751 12.1246499 2.752751 19.1534325s-.917584 13.4132601-2.752751 19.1534325c-1.835168 5.7401724-4.392688 10.6603202-7.672561 14.7604434-3.279874 4.1001232-7.223531 7.2630753-11.830972 9.4888565-4.607441 2.2257811-9.64439 3.3386717-15.110845 3.3386717-5.544548 0-10.60102-1.1128906-15.169415-3.3386717-4.568395-2.2257812-8.512052-5.3887333-11.830971-9.4888565-3.31892-4.1001232-5.895963-9.020271-7.73113-14.7604434-1.835168-5.7401724-2.752751-12.1246499-2.752751-19.1534325z" fill="#fff" transform="translate(1574.3974 1167.808)"/>
            <path d="m22.724837 46.6242577c0 3.9048792.351415 7.4583193 1.054245 10.6603202.70283 3.202001 1.698505 5.9744652 2.987027 8.3173927 1.288522 2.3429276 2.830843 4.1586964 4.626964 5.4473065 1.796121 1.2886102 3.826519 1.9329152 6.091194 1.9329152 2.186582 0 4.197457-.644305 6.032624-1.9329152 1.835167-1.2886101 3.377489-3.1043789 4.626964-5.4473065 1.249476-2.3429275 2.225629-5.1153917 2.928459-8.3173927.70283-3.2020009 1.054245-6.755441 1.054245-10.6603202 0-3.8267816-.351415-7.3606973-1.054245-10.601747-.70283-3.2410498-1.678983-6.013514-2.928459-8.3173927-1.249475-2.3038788-2.791797-4.1001232-4.626964-5.3887333-1.835167-1.2886102-3.846042-1.9329153-6.032624-1.9329153-2.264675 0-4.295073.6443051-6.091194 1.9329153-1.796121 1.2886101-3.338442 3.0848545-4.626964 5.3887333-1.288522 2.3038787-2.284197 5.0763429-2.987027 8.3173927-.70283 3.2410497-1.054245 6.7749654-1.054245 10.601747zm-22.724837 0c0-7.0287826.917583-13.4132601 2.752751-19.1534325 1.835167-5.7401724 4.41221-10.6407958 7.73113-14.7018702 3.318919-4.06107437 7.262576-7.20450213 11.830971-9.43028328s9.624867-3.33867172 15.169415-3.33867172c5.466455 0 10.503404 1.11289057 15.110845 3.33867172s8.551098 5.36920891 11.830972 9.43028328c3.279873 4.0610744 5.837393 8.9616978 7.672561 14.7018702 1.835167 5.7401724 2.752751 12.1246499 2.752751 19.1534325s-.917584 13.4132601-2.752751 19.1534325c-1.835168 5.7401724-4.392688 10.6603202-7.672561 14.7604434-3.279874 4.1001232-7.223531 7.2630753-11.830972 9.4888565-4.607441 2.2257811-9.64439 3.3386717-15.110845 3.3386717-5.544548 0-10.60102-1.1128906-15.169415-3.3386717-4.568395-2.2257812-8.512052-5.3887333-11.830971-9.4888565-3.31892-4.1001232-5.895963-9.020271-7.73113-14.7604434-1.835168-5.7401724-2.752751-12.1246499-2.752751-19.1534325z" fill="#1f303a" transform="translate(1574.3974 1167.808)"/>
            <g transform="translate(1653.3486 1170.3852)">
                <path d="m42.638354 52.5987229v-34.7924738l-20.264932 34.7924738zm21.319177 0h10.659588v17.5719564h-10.659588v18.1576883h-21.319177v-18.1576883h-42.638354v-14.7604434l33.735841-55.4102359h30.22169z" fill="#fff"/>
                <path d="m42.638354 52.5987229v-34.7924738l-20.264932 34.7924738zm21.319177 0h10.659588v17.5719564h-10.659588v18.1576883h-21.319177v-18.1576883h-42.638354v-14.7604434l33.735841-55.4102359h30.22169z" fill="#1f303a"/>
            </g>
        </g>
        <g transform="translate(235 113.9131)">
            <g fill="#6b8c91">
                <path d="m1232.55969 1067.46094c10.10755 0 18.30133 8.19606 18.30133 18.30642s-8.19378 18.30642-18.30133 18.30642h-1078.55836c-10.107546 0-18.30133-8.19606-18.30133-18.30642s8.193784-18.30642 18.30133-18.30642zm-994.347678 91.5321 908.966038 1.22046c10.10754.01357 18.29032 8.22063 18.27679 18.33098-.01361 10.11035-8.21838 18.2954-18.32592 18.28187l-908.96604-1.22047c-10.107536-.01357-18.290314-8.22063-18.276781-18.33097.013601-10.11035 8.218376-18.29541 18.325913-18.28187zm786.932608 91.53213c10.10755 0 18.30133 8.19606 18.30133 18.30642s-8.19378 18.30643-18.30133 18.30643h-666.168398c-10.107546 0-18.30133-8.19607-18.30133-18.30643s8.193784-18.30642 18.30133-18.30642z"/>
                <path d="m1104.53711 570.746938 254.99853 1.220855c10.10743.048374 18.26191 8.28356 18.21398 18.393803-.04879 10.110242-8.28168 18.266998-18.38911 18.21905l-254.99853-1.220854c-10.10743-.048375-18.26191-8.283561-18.21398-18.393804.04879-10.110242 8.28168-18.266998 18.38911-18.21905zm252.33214 192.828399c10.10726-.076591 18.36288 8.057149 18.44051 18.167217.07551 10.110068-8.05597 18.367987-18.16322 18.444579l-161.0517 1.220428c-10.10726.076591-18.36288-8.057149-18.44052-18.167217-.0755-10.110068 8.05598-18.367987 18.16323-18.444579z"/>
                <path d="m219.770697 683.636938c10.107345-.06285 18.3525 8.081506 18.416802 18.191664.062834 10.110158-8.079256 18.357608-18.186602 18.421194l-193.9940937 1.221163c-10.1073454.062851-18.35249995-8.081505-18.4168033-18.191664-.06283307-10.110158 8.079257-18.357607 18.1866024-18.421193zm62.339621 199.540386c10.107545 0 18.30133 8.196064 18.30133 18.306423 0 10.110358-8.193785 18.306423-18.30133 18.306423h-215.9556899c-10.1075453 0-18.3013297-8.196065-18.3013297-18.306423 0-10.110359 8.1937844-18.306423 18.3013297-18.306423z"/>
            </g>
            <path d="m794.70079 15.1305141c1.755208-9.95674997 11.247381-16.60501797 21.201361-14.84932097 329.491569 58.11618697 573.097849 345.68327687 573.097849 684.11245687 0 383.66851-310.93824 694.69329-694.5 694.69329-383.561759 0-694.5-311.02478-694.5-694.69329 0-338.232702 243.328177-625.6851029 572.572359-684.01956087 9.952624-1.763375 19.449919 4.877568 21.212803 14.83296197 1.762884 9.955393-4.876211 19.455331-14.828835 21.218706-311.837224 55.250347-542.3536677 327.5677839-542.3536677 647.9678929 0 363.44779 294.5506727 658.08044 657.8973407 658.08044 363.34667 0 657.89734-294.63265 657.89734-658.08044 0-320.586207-230.77988-593.0122679-542.851361-648.0558749-9.95398-1.755697-16.600397-11.250511-14.845189-21.207261z" fill="#1f303a"/>
        </g>
        <g transform="translate(509.79)">
            <path d="m447.772532 1023.93927v463.76272h-48.803546v-463.76272z" fill="#1f303a"/>
            <g transform="translate(2.44 805.483)">
                <path d="m414.368151 4.88171284.871683 251.40821116h-402.5431084z" fill="#55767d"/>
                <path d="m814.061356 4.88171284.871683 251.40821116h-402.543109z" fill="#335056" transform="matrix(-1 0 0 1 1227.323 0)"/>
                <path d="m417.270316 0 417.270316 261.171637h-834.540632zm0 43.1885135-289.775933 181.3702775h579.549426z" fill="#1f303a"/>
            </g>
            <g transform="translate(0 663.913)">
                <path d="m416.398447 9.76342568.871869 202.59108232h-402.6292523z" fill="#83a3a8"/>
                <path d="m816.587992 9.76342568.871869 202.59108232h-402.629252z" fill="#45666d" transform="matrix(-1 0 0 1 1232.2904 0)"/>
                <path d="m417.270316 0 417.270316 214.795365h-834.540632zm0 41.1748069-266.157457 137.0077121h532.312474z" fill="#1f303a"/>
            </g>
            <g transform="translate(107.368 495.494)">
                <path d="m311.68747 9.76342568.655223 187.94594432h-302.58198386z" fill="#83a3a8"/>
                <path d="m611.829262 9.76342568.655223 187.94594432h-302.581984z" fill="#45666d" transform="matrix(-1 0 0 1 922.387 0)"/>
                <path d="m313.562781 0 313.562782 200.150226h-627.125563zm0 43.4301583-188.16451 120.1072217h376.326581z" fill="#1f303a"/>
            </g>
            <g transform="translate(107.368 331.957)">
                <path d="m311.68747 9.76342568.655223 180.62337532h-302.58198386z" fill="#83a3a8"/>
                <path d="m611.829262 9.76342568.655223 180.62337532h-302.581984z" fill="#45666d" transform="matrix(-1 0 0 1 922.387 0)"/>
                <path d="m313.562781 0 313.562782 192.827657h-627.125563zm-.00244 42.976159-184.138218 113.238652h368.278876z" fill="#1f303a"/>
            </g>
            <g transform="translate(292.821)">
                <path d="m129.329396 0v339.279042h-2.440177v-339.279042z" fill="#1f303a"/>
                <path d="m126.784368.29557246.104851 336.54261354h-126.889219z" fill="#83a3a8"/>
                <path d="m256.218328.8247425-.290724 336.0134435h-126.889219z" fill="#36575c" transform="matrix(-1 0 0 1 385.2568 0)"/>
                <path d="m188.271811 180.051299 67.947261 73.797769-126.879687 83.135712z" fill="#1d363b" transform="matrix(-1 0 0 1 385.5584 0)"/>
                <path d="m58.9419581 180.051299 67.9472609 73.797769-126.87968706 83.135712z" fill="#243d42"/>
            </g>
        </g>
        <g transform="translate(.714 1609.66)">
            <path d="m1276.41383 341.599834 259.90576 1.220327c8.08678.03796 14.61164 6.623211 14.574 14.708571-.0383 8.085359-6.62471 14.609066-14.71149 14.571428l-259.90576-1.220321c-8.08679-.03796-14.61164-6.623211-14.574-14.708571.03829-8.085359 6.6247-14.609066 14.71149-14.571434zm-970.070805-1.22 259.905762 1.220327c8.086783.03796 14.611639 6.623211 14.574001 14.708571-.038294 8.085359-6.624705 14.609066-14.711489 14.571428l-259.905761-1.220321c-8.086784-.03796-14.61164-6.623211-14.574001-14.708571.038294-8.085359 6.624705-14.609066 14.711488-14.571434z" fill="#1f303a"/>
            <path d="m34.4393437 0v103.29984h41.2920704v29.16288h-75.7314141v-132.46272z" fill="#fff" transform="translate(668.386 305.5173)"/>
            <path d="m34.4393437 0v103.29984h41.2920704v29.16288h-75.7314141v-132.46272z" fill="#1f303a" transform="translate(668.386 305.5173)"/>
            <path d="m84.692672 83.27232-15.462562-44.09568-15.462563 44.09568zm9.136969 26.17632h-49.199063l-7.906992 23.01408h-36.723586l50.429039-132.46272h37.602141l50.429039 132.46272h-36.723586z" fill="#fff" transform="translate(779.0644 305.5173)"/>
            <path d="m84.692672 83.27232-15.462562-44.09568-15.462563 44.09568zm9.136969 26.17632h-49.199063l-7.906992 23.01408h-36.723586l50.429039-132.46272h37.602141l50.429039 132.46272h-36.723586z" fill="#1f303a" transform="translate(779.0644 305.5173)"/>
            <path d="m34.439344 105.75936h7.55557c8.668407 0 14.87686-1.11264 18.62536-3.33792s5.62275-5.79744 5.62275-10.71648-1.87425-8.4912-5.62275-10.71648-9.956953-3.33792-18.62536-3.33792h-7.55557zm0-53.75808h6.325594c10.776937 0 16.165406-4.27488 16.165406-12.82464s-5.388469-12.82464-16.165406-12.82464h-6.325594zm-34.439344-52.00128h51.307594c12.182625 0 21.436735 2.928 27.762328 8.784 6.325594 5.856 9.488391 14.28864 9.488391 25.29792 0 6.67584-1.200691 12.20976-3.602074 16.60176s-6.062028 8.11056-10.981934 11.15568c4.919906.93696 9.107684 2.37168 12.563332 4.30416 3.455649 1.93248 6.267024 4.30416 8.434125 7.11504 2.167102 2.81088 3.719215 5.97312 4.65634 9.48672s1.405687 7.26144 1.405687 11.24352c0 6.20736-1.08355 11.712-3.250652 16.51392-2.167101 4.80192-5.212758 8.84256-9.136969 12.12192s-8.697691 5.73888-14.320441 7.37856-11.948344 2.45952-18.976781 2.45952h-55.348946z" fill="#fff" transform="translate(957.04 305.5173)"/>
            <path d="m34.439344 105.75936h7.55557c8.668407 0 14.87686-1.11264 18.62536-3.33792s5.62275-5.79744 5.62275-10.71648-1.87425-8.4912-5.62275-10.71648-9.956953-3.33792-18.62536-3.33792h-7.55557zm0-53.75808h6.325594c10.776937 0 16.165406-4.27488 16.165406-12.82464s-5.388469-12.82464-16.165406-12.82464h-6.325594zm-34.439344-52.00128h51.307594c12.182625 0 21.436735 2.928 27.762328 8.784 6.325594 5.856 9.488391 14.28864 9.488391 25.29792 0 6.67584-1.200691 12.20976-3.602074 16.60176s-6.062028 8.11056-10.981934 11.15568c4.919906.93696 9.107684 2.37168 12.563332 4.30416 3.455649 1.93248 6.267024 4.30416 8.434125 7.11504 2.167102 2.81088 3.719215 5.97312 4.65634 9.48672s1.405687 7.26144 1.405687 11.24352c0 6.20736-1.08355 11.712-3.250652 16.51392-2.167101 4.80192-5.212758 8.84256-9.136969 12.12192s-8.697691 5.73888-14.320441 7.37856-11.948344 2.45952-18.976781 2.45952h-55.348946z" fill="#1f303a" transform="translate(957.04 305.5173)"/>
            <path d="m78.7185 37.59552c-3.7485-3.04512-7.497-5.29968-11.2455-6.76368s-7.379859-2.196-10.894078-2.196c-4.451344 0-8.082703 1.05408-10.894078 3.16224s-4.217063 4.86048-4.217063 8.25696c0 2.3424.702844 4.27488 2.108532 5.79744 1.405687 1.52256 3.250652 2.84016 5.534894 3.9528s4.861336 2.07888 7.731281 2.89872c2.869946.81984 5.710606 1.69824 8.521981 2.6352 11.2455 3.74784 19.474629 8.75472 24.687387 15.02064 5.212757 6.26592 7.819136 14.43504 7.819136 24.50736 0 6.79296-1.142121 12.94176-3.426363 18.4464s-5.62275 10.21872-10.015523 14.14224c-4.392774 3.92352-9.781243 6.96864-16.165407 9.13536s-13.617597 3.25008-21.7003 3.25008c-16.75111 0-32.272243-4.9776-46.563399-14.9328l14.759719-27.75744c5.154187 4.56768 10.249805 7.96416 15.286851 10.18944 5.037047 2.22528 10.015524 3.33792 14.93543 3.33792 5.62275 0 9.810528-1.28832 12.563332-3.86496 2.752805-2.57664 4.129207-5.50464 4.129207-8.784 0-1.99104-.351422-3.71856-1.054265-5.18256-.702844-1.464-1.87425-2.81088-3.514219-4.04064s-3.777785-2.37168-6.413449-3.42576-5.827746-2.22528-9.576246-3.5136c-4.451344-1.40544-8.814832-2.95728-13.090465-4.65552s-8.082703-3.9528-11.421211-6.76368-6.032742-6.35376-8.082703-10.62864-3.074942-9.69168-3.074942-16.2504 1.083551-12.50256 3.250653-17.83152c2.167101-5.32896 5.212757-9.89664 9.136968-13.70304s8.726977-6.76368 14.408297-8.87184c5.681321-2.10816 12.036199-3.16224 19.064637-3.16224 6.559875 0 13.412601.90768 20.55818 2.72304 7.145578 1.81536 13.998304 4.47984 20.558179 7.99344z" fill="#fff" transform="translate(1097.0621 301.828)"/>
            <path d="m78.7185 37.59552c-3.7485-3.04512-7.497-5.29968-11.2455-6.76368s-7.379859-2.196-10.894078-2.196c-4.451344 0-8.082703 1.05408-10.894078 3.16224s-4.217063 4.86048-4.217063 8.25696c0 2.3424.702844 4.27488 2.108532 5.79744 1.405687 1.52256 3.250652 2.84016 5.534894 3.9528s4.861336 2.07888 7.731281 2.89872c2.869946.81984 5.710606 1.69824 8.521981 2.6352 11.2455 3.74784 19.474629 8.75472 24.687387 15.02064 5.212757 6.26592 7.819136 14.43504 7.819136 24.50736 0 6.79296-1.142121 12.94176-3.426363 18.4464s-5.62275 10.21872-10.015523 14.14224c-4.392774 3.92352-9.781243 6.96864-16.165407 9.13536s-13.617597 3.25008-21.7003 3.25008c-16.75111 0-32.272243-4.9776-46.563399-14.9328l14.759719-27.75744c5.154187 4.56768 10.249805 7.96416 15.286851 10.18944 5.037047 2.22528 10.015524 3.33792 14.93543 3.33792 5.62275 0 9.810528-1.28832 12.563332-3.86496 2.752805-2.57664 4.129207-5.50464 4.129207-8.784 0-1.99104-.351422-3.71856-1.054265-5.18256-.702844-1.464-1.87425-2.81088-3.514219-4.04064s-3.777785-2.37168-6.413449-3.42576-5.827746-2.22528-9.576246-3.5136c-4.451344-1.40544-8.814832-2.95728-13.090465-4.65552s-8.082703-3.9528-11.421211-6.76368-6.032742-6.35376-8.082703-10.62864-3.074942-9.69168-3.074942-16.2504 1.083551-12.50256 3.250653-17.83152c2.167101-5.32896 5.212757-9.89664 9.136968-13.70304s8.726977-6.76368 14.408297-8.87184c5.681321-2.10816 12.036199-3.16224 19.064637-3.16224 6.559875 0 13.412601.90768 20.55818 2.72304 7.145578 1.81536 13.998304 4.47984 20.558179 7.99344z" fill="#1f303a" transform="translate(1097.0621 301.828)"/>
            <path d="m0 183.976v-183.976h47.8324219l88.3435551 112.484v-112.484h47.588378v183.976h-47.588378l-88.3435551-112.484v112.484z" fill="#fff" transform="translate(0 5.124)"/>
            <path d="m0 183.976v-183.976h47.8324219l88.3435551 112.484v-112.484h47.588378v183.976h-47.588378l-88.3435551-112.484v112.484z" fill="#1f303a" transform="translate(0 5.124)"/>
            <path d="m50.028808 97.112c0 7.32 1.38291 14.070667 4.148731 20.252 2.76582 6.181333 6.507812 11.549333 11.225976 16.104s10.209131 8.092667 16.472901 10.614c6.263769 2.521333 12.893603 3.782 19.889502 3.782 6.995898 0 13.625732-1.260667 19.889502-3.782 6.263769-2.521333 11.79541-6.059333 16.594921-10.614 4.799512-4.554667 8.582178-9.922667 11.347999-16.104 2.76582-6.181333 4.14873-12.932 4.14873-20.252s-1.38291-14.0706667-4.14873-20.252c-2.765821-6.1813333-6.548487-11.5493333-11.347999-16.104-4.799511-4.5546667-10.331152-8.0926667-16.594921-10.614-6.26377-2.5213333-12.893604-3.782-19.889502-3.782-6.995899 0-13.625733 1.2606667-19.889502 3.782-6.26377 2.5213333-11.754737 6.0593333-16.472901 10.614s-8.460156 9.9226667-11.225976 16.104c-2.765821 6.1813333-4.148731 12.932-4.148731 20.252zm-50.028808 0c0-13.664 2.521777-26.3926667 7.565332-38.186 5.043554-11.7933333 12.039453-22.082 20.987695-30.866s19.645459-15.6566667 32.09165-20.618c12.446192-4.96133333 26.153272-7.442 41.121241-7.442 14.805273 0 28.471679 2.48066667 40.999218 7.442 12.527539 4.9613333 23.306104 11.834 32.335694 20.618s16.066162 19.0726667 21.109717 30.866c5.043554 11.7933333 7.565332 24.522 7.565332 38.186s-2.521778 26.392667-7.565332 38.186c-5.043555 11.793333-12.080127 22.082-21.109717 30.866s-19.808155 15.656667-32.335694 20.618-26.193945 7.442-40.999218 7.442c-14.967969 0-28.675049-2.480667-41.121241-7.442-12.446191-4.961333-23.143408-11.834-32.09165-20.618s-15.944141-19.072667-20.987695-30.866c-5.043555-11.793333-7.565332-24.522-7.565332-38.186z" fill="#fff" transform="translate(221.1029)"/>
            <path d="m50.028808 97.112c0 7.32 1.38291 14.070667 4.148731 20.252 2.76582 6.181333 6.507812 11.549333 11.225976 16.104s10.209131 8.092667 16.472901 10.614c6.263769 2.521333 12.893603 3.782 19.889502 3.782 6.995898 0 13.625732-1.260667 19.889502-3.782 6.263769-2.521333 11.79541-6.059333 16.594921-10.614 4.799512-4.554667 8.582178-9.922667 11.347999-16.104 2.76582-6.181333 4.14873-12.932 4.14873-20.252s-1.38291-14.0706667-4.14873-20.252c-2.765821-6.1813333-6.548487-11.5493333-11.347999-16.104-4.799511-4.5546667-10.331152-8.0926667-16.594921-10.614-6.26377-2.5213333-12.893604-3.782-19.889502-3.782-6.995899 0-13.625733 1.2606667-19.889502 3.782-6.26377 2.5213333-11.754737 6.0593333-16.472901 10.614s-8.460156 9.9226667-11.225976 16.104c-2.765821 6.1813333-4.148731 12.932-4.148731 20.252zm-50.028808 0c0-13.664 2.521777-26.3926667 7.565332-38.186 5.043554-11.7933333 12.039453-22.082 20.987695-30.866s19.645459-15.6566667 32.09165-20.618c12.446192-4.96133333 26.153272-7.442 41.121241-7.442 14.805273 0 28.471679 2.48066667 40.999218 7.442 12.527539 4.9613333 23.306104 11.834 32.335694 20.618s16.066162 19.0726667 21.109717 30.866c5.043554 11.7933333 7.565332 24.522 7.565332 38.186s-2.521778 26.392667-7.565332 38.186c-5.043555 11.793333-12.080127 22.082-21.109717 30.866s-19.808155 15.656667-32.335694 20.618-26.193945 7.442-40.999218 7.442c-14.967969 0-28.675049-2.480667-41.121241-7.442-12.446191-4.961333-23.143408-11.834-32.09165-20.618s-15.944141-19.072667-20.987695-30.866c-5.043555-11.793333-7.565332-24.522-7.565332-38.186z" fill="#1f303a" transform="translate(221.1029)"/>
            <path d="m47.832422 82.228h9.02959c9.436328 0 16.676269-1.952 21.719824-5.856s7.565332-9.516 7.565332-16.836-2.521777-12.932-7.565332-16.836-12.283496-5.856-21.719824-5.856h-9.02959zm105.18252 101.748h-59.546485l-45.636035-70.76v70.76h-47.832422v-183.976h74.433106c10.249804 0 19.198046 1.50466667 26.844726 4.514 7.64668 3.0093333 13.951123 7.1166667 18.91333 12.322s8.704199 11.224 11.225977 18.056c2.521777 6.832 3.782666 14.152 3.782666 21.96 0 13.9893333-3.375928 25.3353333-10.127783 34.038-6.751856 8.702667-16.716944 14.599333-29.895264 17.69z" fill="#fff" transform="translate(460.021 5.124)"/>
            <path d="m47.832422 82.228h9.02959c9.436328 0 16.676269-1.952 21.719824-5.856s7.565332-9.516 7.565332-16.836-2.521777-12.932-7.565332-16.836-12.283496-5.856-21.719824-5.856h-9.02959zm105.18252 101.748h-59.546485l-45.636035-70.76v70.76h-47.832422v-183.976h74.433106c10.249804 0 19.198046 1.50466667 26.844726 4.514 7.64668 3.0093333 13.951123 7.1166667 18.91333 12.322s8.704199 11.224 11.225977 18.056c2.521777 6.832 3.782666 14.152 3.782666 21.96 0 13.9893333-3.375928 25.3353333-10.127783 34.038-6.751856 8.702667-16.716944 14.599333-29.895264 17.69z" fill="#1f303a" transform="translate(460.021 5.124)"/>
            <path d="m87.123339 40.504v143.472h-47.832422v-143.472h-39.290917v-40.504h126.414257v40.504z" fill="#fff" transform="translate(620.8453 5.124)"/>
            <path d="m87.123339 40.504v143.472h-47.832422v-143.472h-39.290917v-40.504h126.414257v40.504z" fill="#1f303a" transform="translate(620.8453 5.124)"/>
            <path d="m47.832422 71.004h69.06416v-71.004h47.832422v183.976h-47.832422v-75.884h-69.06416v75.884h-47.832422v-183.976h47.832422z" fill="#fff" transform="translate(773.3722 5.124)"/>
            <path d="m47.832422 71.004h69.06416v-71.004h47.832422v183.976h-47.832422v-75.884h-69.06416v75.884h-47.832422v-183.976h47.832422z" fill="#1f303a" transform="translate(773.3722 5.124)"/>
            <path d="m50.028804 0 31.72559 118.828 39.04688-118.828h38.0707l39.04687 118.828 31.72559-118.828h50.02881l-54.90967 183.976h-48.80859l-36.11836-106.628-36.11836 106.628h-48.8086l-54.909664-183.976z" fill="#fff" transform="translate(962.2614 5.124)"/>
            <path d="m50.028804 0 31.72559 118.828 39.04688-118.828h38.0707l39.04687 118.828 31.72559-118.828h50.02881l-54.90967 183.976h-48.80859l-36.11836-106.628-36.11836 106.628h-48.8086l-54.909664-183.976z" fill="#1f303a" transform="translate(962.2614 5.124)"/>
            <path d="m50.02881 97.112c0 7.32 1.38291 14.070667 4.14873 20.252s6.50781 11.549333 11.22598 16.104c4.71816 4.554667 10.20913 8.092667 16.4729 10.614s12.8936 3.782 19.8895 3.782 13.62573-1.260667 19.8895-3.782 11.79541-6.059333 16.59493-10.614c4.79951-4.554667 8.58217-9.922667 11.34799-16.104s4.14873-12.932 4.14873-20.252-1.38291-14.0706667-4.14873-20.252-6.54848-11.5493333-11.34799-16.104c-4.79952-4.5546667-10.33116-8.0926667-16.59493-10.614s-12.8936-3.782-19.8895-3.782-13.62573 1.2606667-19.8895 3.782-11.75474 6.0593333-16.4729 10.614c-4.71817 4.5546667-8.46016 9.9226667-11.22598 16.104s-4.14873 12.932-4.14873 20.252zm-50.02881 0c0-13.664 2.52178-26.3926667 7.56534-38.186 5.04355-11.7933333 12.03945-22.082 20.98769-30.866s19.64546-15.6566667 32.09165-20.618c12.44619-4.96133333 26.15327-7.442 41.12124-7.442 14.80527 0 28.47168 2.48066667 40.99922 7.442 12.52754 4.9613333 23.3061 11.834 32.33569 20.618s16.06617 19.0726667 21.10972 30.866 7.56533 24.522 7.56533 38.186-2.52178 26.392667-7.56533 38.186-12.08013 22.082-21.10972 30.866-19.80815 15.656667-32.33569 20.618-26.19395 7.442-40.99922 7.442c-14.96797 0-28.67505-2.480667-41.12124-7.442s-23.14341-11.834-32.09165-20.618-15.94414-19.072667-20.98769-30.866c-5.04356-11.793333-7.56534-24.522-7.56534-38.186z" fill="#fff" transform="translate(1253.8928)"/>
            <path d="m50.02881 97.112c0 7.32 1.38291 14.070667 4.14873 20.252s6.50781 11.549333 11.22598 16.104c4.71816 4.554667 10.20913 8.092667 16.4729 10.614s12.8936 3.782 19.8895 3.782 13.62573-1.260667 19.8895-3.782 11.79541-6.059333 16.59493-10.614c4.79951-4.554667 8.58217-9.922667 11.34799-16.104s4.14873-12.932 4.14873-20.252-1.38291-14.0706667-4.14873-20.252-6.54848-11.5493333-11.34799-16.104c-4.79952-4.5546667-10.33116-8.0926667-16.59493-10.614s-12.8936-3.782-19.8895-3.782-13.62573 1.2606667-19.8895 3.782-11.75474 6.0593333-16.4729 10.614c-4.71817 4.5546667-8.46016 9.9226667-11.22598 16.104s-4.14873 12.932-4.14873 20.252zm-50.02881 0c0-13.664 2.52178-26.3926667 7.56534-38.186 5.04355-11.7933333 12.03945-22.082 20.98769-30.866s19.64546-15.6566667 32.09165-20.618c12.44619-4.96133333 26.15327-7.442 41.12124-7.442 14.80527 0 28.47168 2.48066667 40.99922 7.442 12.52754 4.9613333 23.3061 11.834 32.33569 20.618s16.06617 19.0726667 21.10972 30.866 7.56533 24.522 7.56533 38.186-2.52178 26.392667-7.56533 38.186-12.08013 22.082-21.10972 30.866-19.80815 15.656667-32.33569 20.618-26.19395 7.442-40.99922 7.442c-14.96797 0-28.67505-2.480667-41.12124-7.442s-23.14341-11.834-32.09165-20.618-15.94414-19.072667-20.98769-30.866c-5.04356-11.793333-7.56534-24.522-7.56534-38.186z" fill="#1f303a" transform="translate(1253.8928)"/>
            <path d="m50.02881 97.112c0 7.32 1.38291 14.070667 4.14873 20.252s6.50781 11.549333 11.22597 16.104c4.71817 4.554667 10.20914 8.092667 16.4729 10.614 6.26377 2.521333 12.89361 3.782 19.88951 3.782s13.62573-1.260667 19.8895-3.782 11.79541-6.059333 16.59492-10.614 8.58218-9.922667 11.348-16.104 4.14873-12.932 4.14873-20.252-1.38291-14.0706667-4.14873-20.252-6.54849-11.5493333-11.348-16.104-10.33115-8.0926667-16.59492-10.614-12.8936-3.782-19.8895-3.782-13.62574 1.2606667-19.88951 3.782c-6.26376 2.5213333-11.75473 6.0593333-16.4729 10.614-4.71816 4.5546667-8.46015 9.9226667-11.22597 16.104s-4.14873 12.932-4.14873 20.252zm-50.02881 0c0-13.664 2.52178-26.3926667 7.56533-38.186 5.04356-11.7933333 12.03945-22.082 20.9877-30.866 8.94824-8.784 19.64546-15.6566667 32.09165-20.618 12.44619-4.96133333 26.15327-7.442 41.12124-7.442 14.80527 0 28.47168 2.48066667 40.99922 7.442 12.52753 4.9613333 23.3061 11.834 32.33569 20.618s16.06616 19.0726667 21.10972 30.866c5.04355 11.7933333 7.56533 24.522 7.56533 38.186s-2.52178 26.392667-7.56533 38.186c-5.04356 11.793333-12.08013 22.082-21.10972 30.866s-19.80816 15.656667-32.33569 20.618c-12.52754 4.961333-26.19395 7.442-40.99922 7.442-14.96797 0-28.67505-2.480667-41.12124-7.442s-23.14341-11.834-32.09165-20.618c-8.94825-8.784-15.94414-19.072667-20.9877-30.866-5.04355-11.793333-7.56533-24.522-7.56533-38.186z" fill="#fff" transform="translate(1484.5134)"/>
            <path d="m50.02881 97.112c0 7.32 1.38291 14.070667 4.14873 20.252s6.50781 11.549333 11.22597 16.104c4.71817 4.554667 10.20914 8.092667 16.4729 10.614 6.26377 2.521333 12.89361 3.782 19.88951 3.782s13.62573-1.260667 19.8895-3.782 11.79541-6.059333 16.59492-10.614 8.58218-9.922667 11.348-16.104 4.14873-12.932 4.14873-20.252-1.38291-14.0706667-4.14873-20.252-6.54849-11.5493333-11.348-16.104-10.33115-8.0926667-16.59492-10.614-12.8936-3.782-19.8895-3.782-13.62574 1.2606667-19.88951 3.782c-6.26376 2.5213333-11.75473 6.0593333-16.4729 10.614-4.71816 4.5546667-8.46015 9.9226667-11.22597 16.104s-4.14873 12.932-4.14873 20.252zm-50.02881 0c0-13.664 2.52178-26.3926667 7.56533-38.186 5.04356-11.7933333 12.03945-22.082 20.9877-30.866 8.94824-8.784 19.64546-15.6566667 32.09165-20.618 12.44619-4.96133333 26.15327-7.442 41.12124-7.442 14.80527 0 28.47168 2.48066667 40.99922 7.442 12.52753 4.9613333 23.3061 11.834 32.33569 20.618s16.06616 19.0726667 21.10972 30.866c5.04355 11.7933333 7.56533 24.522 7.56533 38.186s-2.52178 26.392667-7.56533 38.186c-5.04356 11.793333-12.08013 22.082-21.10972 30.866s-19.80816 15.656667-32.33569 20.618c-12.52754 4.961333-26.19395 7.442-40.99922 7.442-14.96797 0-28.67505-2.480667-41.12124-7.442s-23.14341-11.834-32.09165-20.618c-8.94825-8.784-15.94414-19.072667-20.9877-30.866-5.04355-11.793333-7.56533-24.522-7.56533-38.186z" fill="#1f303a" transform="translate(1484.5134)"/>
            <g transform="translate(1723.4315 5.124)">
                <path d="m47.83242 143.472h10.98193c8.29746 0 15.7001-1.301333 22.20791-3.904s11.99878-6.181333 16.4729-10.736 7.89072-9.963333 10.24981-16.226c2.35908-6.262667 3.53862-13.135333 3.53862-20.618 0-7.32-1.22022-14.152-3.66065-20.496s-5.8977-11.7933333-10.37182-16.348-9.96509-8.1333333-16.4729-10.736-13.8291-3.904-21.96387-3.904h-10.98193zm-47.83242-143.472h70.77246c12.52754 0 24.28227 2.52133333 35.26421 7.564 10.98193 5.0426667 20.58095 11.7526667 28.79707 20.13 8.21611 8.3773333 14.68325 18.1373333 19.40141 29.28 4.71817 11.1426667 7.07725 22.814 7.07725 35.014 0 12.037333-2.31841 23.627333-6.95523 34.77-4.63681 11.142667-11.06328 20.943333-19.27939 29.402s-17.81514 15.209333-28.79707 20.252c-10.98194 5.042667-22.81802 7.564-35.50825 7.564h-70.77246z" fill="#fff"/>
                <path d="m47.83242 143.472h10.98193c8.29746 0 15.7001-1.301333 22.20791-3.904s11.99878-6.181333 16.4729-10.736 7.89072-9.963333 10.24981-16.226c2.35908-6.262667 3.53862-13.135333 3.53862-20.618 0-7.32-1.22022-14.152-3.66065-20.496s-5.8977-11.7933333-10.37182-16.348-9.96509-8.1333333-16.4729-10.736-13.8291-3.904-21.96387-3.904h-10.98193zm-47.83242-143.472h70.77246c12.52754 0 24.28227 2.52133333 35.26421 7.564 10.98193 5.0426667 20.58095 11.7526667 28.79707 20.13 8.21611 8.3773333 14.68325 18.1373333 19.40141 29.28 4.71817 11.1426667 7.07725 22.814 7.07725 35.014 0 12.037333-2.31841 23.627333-6.95523 34.77-4.63681 11.142667-11.06328 20.943333-19.27939 29.402s-17.81514 15.209333-28.79707 20.252c-10.98194 5.042667-22.81802 7.564-35.50825 7.564h-70.77246z" fill="#1f303a"/>
            </g>
        </g>
    </g>
</svg>
