<svg xmlns="http://www.w3.org/2000/svg" viewBox="0 0 120 129"><g fill="none" fill-rule="evenodd" transform="translate(0 .025)"><path fill="#6B8C91" fill-rule="nonzero" d="M94.7610963 0C95.6343184 0 96.3422047.708166351 96.3422047 1.58173381 96.3422047 2.45530128 95.6343184 3.16346763 94.7610963 3.16346763L1.58110839 3.16346763C.70788634 3.16346763 0 2.45530128 0 1.58173381 0 .708166351.70788634 0 1.58110839 0L94.7610963 0ZM8.85632929 7.90866904 87.3847128 8.01411942C88.2579341 8.01529199 88.9648696 8.72440826 88.9636989 9.59797494 88.9625254 10.4715416 88.2536895 11.1787568 87.3804682 11.1775857L8.85208471 11.0721353C7.97886344 11.0709627 7.27192792 10.3618464 7.27309858 9.48827976 7.27427214 8.61471308 7.98310802 7.90749793 8.85632929 7.90866904ZM76.8418679 15.8173381C77.7150899 15.8173381 78.4229763 16.5255045 78.4229763 17.399072 78.4229763 18.2726394 77.7150899 18.9808058 76.8418679 18.9808058L19.2895224 18.9808058C18.4163003 18.9808058 17.708414 18.2726394 17.708414 17.399072 17.708414 16.5255045 18.4163003 15.8173381 19.2895224 15.8173381L76.8418679 15.8173381Z" transform="translate(11.723 102.049)"/><path fill="#1F303A" fill-rule="nonzero" d="M68.6566557,11.1242414 C68.8082936,10.2639462 69.6283517,9.68951453 70.4883068,9.84121239 C98.9541011,14.8626377 120,39.7093589 120,68.950728 C120,102.100921 93.137085,128.974462 60,128.974462 C26.862915,128.974462 0,102.100921 0,68.950728 C0,39.7263352 21.0218727,14.8895236 49.4662945,9.84923887 C50.3261324,9.69687762 51.1466331,10.2706765 51.2989341,11.1308544 C51.4512351,11.9910324 50.8776631,12.8118577 50.0178253,12.9642189 C23.0772443,17.7380265 3.16221679,41.2671286 3.16221679,68.950728 C3.16221679,100.353786 28.6093591,125.810994 60,125.810994 C91.3906409,125.810994 116.837783,100.353786 116.837783,68.950728 C116.837783,41.2510491 96.8999964,17.7125616 69.9391774,12.956617 C69.0792224,12.8049191 68.5050178,11.9845366 68.6566557,11.1242414 Z"/><g transform="translate(25.005)"><polygon fill="#1F303A" fill-rule="nonzero" points="37.42 88.446 37.42 128.517 33.203 128.517 33.203 88.446"/><g transform="translate(.043 69.993)"><polygon fill="#55767D" points="34.702 0 34.777 21.722 0 21.722"/><polygon fill="#335056" points="69.232 0 69.308 21.722 34.531 21.722" transform="matrix(-1 0 0 1 103.838 0)"/></g><g transform="translate(0 58.182)"><polygon fill="#83A3A8" points="34.709 0 34.784 17.505 0 17.505"/><polygon fill="#45666D" points="69.283 0 69.358 17.505 34.574 17.505" transform="matrix(-1 0 0 1 103.932 0)"/></g><g transform="translate(8.854 43.63)"><polygon fill="#83A3A8" points="26.084 0 26.141 16.239 0 16.239"/><polygon fill="#45666D" points="52.015 0 52.071 16.239 25.93 16.239" transform="matrix(-1 0 0 1 78.001 0)"/></g><g transform="translate(8.854 29.5)"><polygon fill="#83A3A8" points="26.084 0 26.141 15.606 0 15.606"/><polygon fill="#45666D" points="52.015 0 52.071 15.606 25.93 15.606" transform="matrix(-1 0 0 1 78.001 0)"/></g><g transform="translate(24.033)"><polygon fill="#82A3A8" points="10.953 0 10.962 29.078 0 29.078"/><polygon fill="#36575C" points="22.136 .046 22.11 29.078 11.148 29.078" transform="matrix(-1 0 0 1 33.284 0)"/></g></g></g></svg>
