<svg xmlns="http://www.w3.org/2000/svg" xmlns:xlink="http://www.w3.org/1999/xlink" viewBox="0 0 1312 1497"><defs><path id="a" d="M23.0944149,580.738753 L23.0944149,226.692515 C23.0944149,200.402498 28.4437182,181.355309 39.1423248,169.550948 C49.8409313,157.746587 65.934978,147.34824 87.4244647,138.355906 C100.76312,132.936922 120.259755,125.34163 145.914367,115.570029 C171.56898,105.798427 199.184406,95.4859529 228.760645,84.6326055 C258.336884,73.7792582 285.92027,63.8858964 311.510804,54.95252 C337.101338,46.0191437 356.501853,39.6632451 369.712351,35.8848242 C376.412437,34.0186842 383.541851,32.2256004 391.100593,30.505573 C398.659336,28.7855456 406.052755,27.9255319 413.28085,27.9255319 C420.831903,27.9255319 428.380393,28.6291795 435.92632,30.0364746 C443.472246,31.4437698 450.592689,33.3932196 457.287649,35.8848242 C470.498147,40.2835828 489.906352,47.0162982 515.512265,56.0829702 C541.118177,65.1496423 568.701564,74.9699478 598.262424,85.5438868 C627.823284,96.1178258 655.43102,106.208568 681.085633,115.816113 C706.740245,125.423658 726.252259,132.936922 739.621672,138.355906 C760.783075,147.645592 776.787411,158.118277 787.634681,169.773962 C798.48195,181.429647 803.905585,200.402498 803.905585,226.692515 L803.905585,580.738753 C803.905585,623.06527 797.616886,660.072775 785.039487,691.761268 C772.462088,723.449761 752.274684,752.932466 724.477274,780.209384 C696.679864,807.486301 659.896035,835.502754 614.125787,864.258741 C568.355538,893.014728 512.159659,925.77215 445.538149,962.531008 C439.596757,965.812133 433.766862,968.222991 428.048465,969.763582 C422.330067,971.304173 417.407529,972.074468 413.28085,972.074468 C409.482255,972.074468 404.722478,971.304173 399.001517,969.763582 C393.280556,968.222991 387.451943,965.812133 381.515677,962.531008 C315.160736,925.474798 259.104548,892.5687 213.347115,863.812713 C167.589683,835.056726 130.73793,807.040273 102.791857,779.763356 C74.8457844,752.486438 54.5763592,723.078071 41.9835814,691.538254 C29.3908037,659.998437 23.0944149,623.06527 23.0944149,580.738753 Z"/><path id="c" d="M422.216007,872.213376 C425.123366,871.311911 428.112789,870.134275 431.184274,868.680468 C434.255758,867.22666 437.706294,865.285645 441.535881,862.857422 C495.608604,830.024304 540.959248,801.870466 577.587812,778.395906 C614.216377,754.921347 643.521834,732.621819 665.504183,711.497321 C687.486532,690.372823 703.288136,667.320337 712.908996,642.339863 C722.529856,617.359389 727.340286,587.113422 727.340286,551.601964 L727.340286,224.104508 C727.340286,215.902742 726.291708,209.75272 724.194554,205.654442 C722.097399,201.556165 717.698585,198.324179 710.99811,195.958485 C696.549887,190.956138 679.975852,185.084892 661.276006,178.34475 C642.57616,171.604607 622.91501,164.555726 602.292555,157.198106 C581.6701,149.840486 561.120589,142.447694 540.644023,135.019728 C520.167457,127.591763 500.84628,120.44518 482.680492,113.579978 C464.514704,106.714777 448.697469,100.640312 435.228786,95.3565817 C432.566312,94.4030092 430.202128,93.618787 428.136235,93.0039151 C426.070342,92.3890431 424.096933,91.9304946 422.216007,91.6282694 L422.216007,872.213376 Z"/><path id="e" d="M223.603389,424.383929 C195.89526,424.383929 169.910275,419.182716 145.648431,408.78029 C121.386588,398.377864 100.019623,383.94536 81.5475379,365.482777 C63.0754525,347.020193 48.6355201,325.629775 38.2277406,301.311522 C27.8199612,276.993268 22.6160714,251.056094 22.6160714,223.5 C22.6160714,195.806125 27.8199612,169.834506 38.2277406,145.585143 C48.6355201,121.33578 63.0754525,99.9798066 81.5475379,81.5172233 C100.019623,63.05464 121.386588,48.6221356 145.648431,38.2197099 C169.910275,27.8172843 195.89526,22.6160714 223.603389,22.6160714 C251.311517,22.6160714 277.26204,27.8172843 301.454957,38.2197099 C325.647875,48.6221356 346.980377,63.05464 365.452462,81.5172233 C383.924548,99.9798066 398.36448,121.33578 408.772259,145.585143 C419.180039,169.834506 424.383929,195.806125 424.383929,223.5 C424.383929,251.056094 419.180039,276.993268 408.772259,301.311522 C398.36448,325.629775 383.924548,347.020193 365.452462,365.482777 C346.980377,383.94536 325.647875,398.377864 301.454957,408.78029 C277.26204,419.182716 251.311517,424.383929 223.603389,424.383929 Z"/><path id="g" d="M223.5,262.080357 C212.828837,262.080357 203.730987,258.228673 196.206449,250.525306 C188.681912,242.821938 184.919643,233.626476 184.919643,222.938921 C184.919643,212.112566 188.681912,202.847705 196.206449,195.144337 C203.730987,187.44097 212.828837,183.589286 223.5,183.589286 C234.171163,183.589286 243.269013,187.44097 250.793551,195.144337 C258.318088,202.847705 262.080357,212.112566 262.080357,222.938921 C262.080357,233.626476 258.318088,242.821938 250.793551,250.525306 C243.269013,258.228673 234.171163,262.080357 223.5,262.080357 Z"/><path id="i" d="M89.2576423,295.116625 C116.210716,295.116625 138.866923,283.397897 151.757523,259.569817 L152.148147,259.569817 L152.148147,291.01507 L200.585555,291.01507 L200.585555,0 L151.366899,0 L151.366899,114.062282 L150.976275,114.062282 C137.69505,91.4060757 115.624779,80.6639086 88.867018,80.6639086 C35.9374315,80.6639086 0,124.218513 0,187.694954 C0,251.952644 35.3514951,295.116625 89.2576423,295.116625 Z M100.781058,253.905766 C70.3123659,253.905766 49.8045925,230.46831 49.8045925,187.694954 C49.8045925,145.116911 70.3123659,121.484143 100.781058,121.484143 C133.007559,121.484143 154.101269,147.655968 154.101269,187.694954 C154.101269,227.929253 133.007559,253.905766 100.781058,253.905766 Z"/><path id="j" d="M335.351371,295.702561 C383.593466,295.702561 421.874643,267.772927 429.687128,227.343316 L383.593466,227.343316 C377.929414,244.921408 361.327884,256.835448 336.523243,256.835448 C303.320182,256.835448 284.179593,234.374553 283.00772,200.780867 L432.226186,200.780867 L432.226186,187.30433 C432.226186,124.023201 392.773136,80.0779723 333.398249,80.0779723 C275.58586,80.0779723 234.765625,125.390386 234.765625,188.085579 C234.765625,250.58546 273.437426,295.702561 335.351371,295.702561 Z M283.398345,166.796557 C286.718651,137.304426 305.663927,119.140398 334.179498,119.140398 C362.695068,119.140398 381.835657,137.304426 384.960651,166.796557 L283.398345,166.796557 Z"/><path id="k" d="M524.804556,291.01507 L578.710704,291.01507 L656.249618,84.7654633 L604.687217,84.7654633 L567.577912,192.187133 C562.304485,208.39804 557.421682,224.804259 552.538878,241.015165 C547.460763,224.804259 542.382648,208.39804 537.10922,192.187133 L499.41398,84.7654633 L447.265642,84.7654633 L524.804556,291.01507 Z"/><path id="l" d="M762.499828,295.897873 C813.476293,295.897873 849.999661,270.507297 849.999661,230.272998 C849.999661,199.999619 831.054384,182.030903 790.23415,173.437169 L753.124845,165.819996 C735.937378,162.109066 725.781148,154.491893 725.781148,142.187229 C725.781148,128.124756 739.062372,117.187276 760.742018,117.187276 C783.202913,117.187276 798.241947,130.663813 798.632571,149.023153 L844.921545,149.023153 C843.749673,106.640422 809.57005,80.2732844 759.570146,80.2732844 C709.179617,80.2732844 676.562491,105.859173 676.562491,143.749726 C676.562491,174.999666 697.265577,195.116815 736.718627,203.319925 L771.87481,210.546473 C789.257589,214.257404 799.999756,221.483953 799.999756,233.983929 C799.999756,248.632338 785.546659,258.983881 761.718579,258.983881 C737.109251,258.983881 722.656154,247.460466 720.50772,227.343316 L671.875,227.343316 C674.999994,271.679169 712.304611,295.897873 762.499828,295.897873 Z"/><path id="m" d="M974.609183,295.702561 C1022.85128,295.702561 1061.13246,267.772927 1068.94494,227.343316 L1022.85128,227.343316 C1017.18723,244.921408 1000.5857,256.835448 975.781056,256.835448 C942.577994,256.835448 923.437406,234.374553 922.265533,200.780867 L1071.484,200.780867 L1071.484,187.30433 C1071.484,124.023201 1032.03095,80.0779723 972.656062,80.0779723 C914.843672,80.0779723 874.023438,125.390386 874.023438,188.085579 C874.023438,250.58546 912.695239,295.702561 974.609183,295.702561 Z M922.656157,166.796557 C925.976463,137.304426 944.92174,119.140398 973.43731,119.140398 C1001.95288,119.140398 1021.09347,137.304426 1024.21846,166.796557 L922.656157,166.796557 Z"/><path id="n" d="M1196.09356,295.702561 C1248.2419,295.702561 1286.13245,262.108875 1289.64807,216.991774 L1241.01535,216.991774 C1236.32786,239.843293 1222.46069,254.687014 1196.67949,254.687014 C1164.25768,254.687014 1145.11709,228.710501 1145.11709,188.085579 C1145.11709,147.265344 1164.45299,121.093519 1196.67949,121.093519 C1222.26538,121.093519 1237.69504,136.523177 1241.40597,158.593448 L1289.64807,158.593448 C1285.3512,112.695098 1247.85127,80.0779723 1196.09356,80.0779723 C1135.74211,80.0779723 1095.3125,124.413825 1095.3125,188.085579 C1095.3125,251.757332 1135.74211,295.702561 1196.09356,295.702561 Z"/><path id="o" d="M447.582876,362.109066 L421.337808,362.109066 L421.337808,326.952883 L390.454078,326.952883 L390.454078,362.109066 L367.993184,362.109066 L367.993184,386.889292 L390.454078,386.889292 L390.454078,458.544429 C390.454078,480.639113 402.783156,491.01507 429.028223,491.01507 L447.582876,491.01507 L447.582876,466.234844 L434.399307,466.234844 C424.38956,466.234844 421.337808,463.183092 421.337808,454.027836 L421.337808,386.889292 L447.582876,386.889292 L447.582876,362.109066 Z"/><path id="p" d="M524.609262,493.944752 C562.573057,493.944752 588.207774,466.723124 588.207774,426.684138 C588.207774,386.645152 562.573057,359.179384 524.609262,359.179384 C486.645468,359.179384 461.010751,386.645152 461.010751,426.684138 C461.010751,466.723124 486.645468,493.944752 524.609262,493.944752 Z M524.609262,468.187965 C504.71184,468.187965 492.138621,452.440925 492.138621,426.684138 C492.138621,400.805281 504.83391,384.936171 524.609262,384.936171 C544.262545,384.936171 556.957834,400.927351 556.957834,426.684138 C556.957834,452.318855 544.384615,468.187965 524.609262,468.187965 Z"/><path id="q" d="M667.065317,493.944752 C705.029112,493.944752 730.663829,466.723124 730.663829,426.684138 C730.663829,386.645152 705.029112,359.179384 667.065317,359.179384 C629.101522,359.179384 603.466806,386.645152 603.466806,426.684138 C603.466806,466.723124 629.101522,493.944752 667.065317,493.944752 Z M667.065317,468.187965 C647.167894,468.187965 634.594676,452.440925 634.594676,426.684138 C634.594676,400.805281 647.289964,384.936171 667.065317,384.936171 C686.7186,384.936171 699.413888,400.927351 699.413888,426.684138 C699.413888,452.318855 686.84067,468.187965 667.065317,468.187965 Z"/><path id="s" d="M860.546776,494.066822 C892.407067,494.066822 915.234172,478.197712 915.234172,453.051275 C915.234172,434.130413 903.393374,422.899965 877.880727,417.528882 L854.687412,412.768149 C843.945245,410.448817 837.597601,405.688084 837.597601,397.997669 C837.597601,389.208623 845.898366,382.372699 859.448145,382.372699 C873.486204,382.372699 882.885601,390.795535 883.129741,402.270122 L912.06035,402.270122 C911.327929,375.780915 889.965665,359.301454 858.715725,359.301454 C827.221644,359.301454 806.835941,375.292634 806.835941,398.97423 C806.835941,418.505443 819.775369,431.078661 844.433525,436.205604 L866.40614,440.722197 C877.270377,443.041529 883.984231,447.558122 883.984231,455.370607 C883.984231,464.525863 874.951045,470.995577 860.058496,470.995577 C844.677666,470.995577 835.64448,463.793442 834.301709,451.220224 L803.906259,451.220224 C805.85938,478.930132 829.174766,494.066822 860.546776,494.066822 Z"/><linearGradient id="b" x1="50%" x2="50%" y1="0%" y2="100%"><stop offset="0%" stop-color="#FFF" stop-opacity=".5"/><stop offset="100%" stop-opacity=".5"/></linearGradient><linearGradient id="d" x1="50%" x2="50%" y1="0%" y2="100%"><stop offset="0%" stop-color="#FFF" stop-opacity=".5"/><stop offset="100%" stop-opacity=".5"/></linearGradient><linearGradient id="f" x1="50%" x2="50%" y1="0%" y2="100%"><stop offset="0%" stop-color="#FFF" stop-opacity=".5"/><stop offset="100%" stop-opacity=".5"/></linearGradient><linearGradient id="h" x1="50%" x2="50%" y1="-206.925%" y2="306.694%"><stop offset="0%" stop-color="#FFF" stop-opacity=".5"/><stop offset="100%" stop-opacity=".5"/></linearGradient><polygon id="r" points="782.666 309.131 751.904 309.131 751.904 491.015 782.666 491.015"/></defs><g fill="none" transform="translate(-2 -139)"><g transform="translate(237 139)"><path fill="#FFF" d="M0,585.514848 L0,210.52503 C0,182.679829 5.66574095,162.505905 16.9972229,150.003258 C28.3287048,137.500611 45.3747936,126.48715 68.1354894,116.962875 C82.2631923,111.223332 102.913148,103.17874 130.085358,92.8291006 C157.257567,82.4794609 186.506582,71.5569529 217.832401,60.0615766 C249.15822,48.5662002 278.3733,38.0875973 305.47764,28.6257677 C332.58198,19.1639381 353.130132,12.4320567 367.122096,8.43012364 C374.218525,6.45359224 381.769679,4.55443878 389.775558,2.73266327 C397.781437,0.910887756 405.612214,0 413.267887,0 C421.265621,0 429.260642,0.7452718 437.252947,2.2358154 C445.245252,3.726359 452.786905,5.79112841 459.877904,8.43012364 C473.869868,13.0890905 494.426164,20.2200792 521.546793,29.8230896 C548.667422,39.4261 577.882501,49.827325 609.192032,61.0267646 C640.501563,72.2262042 669.742433,82.9138634 696.914642,93.0897421 C724.086852,103.265621 744.753096,111.223332 758.913377,116.962875 C781.326581,126.802092 798.277652,137.894288 809.766591,150.239464 C821.25553,162.584641 827,182.679829 827,210.52503 L827,585.514848 C827,630.345187 820.339293,669.541868 807.017879,703.104892 C793.696465,736.667916 772.314876,767.894668 742.873113,796.78515 C713.431349,825.675632 674.471575,855.349395 625.993791,885.806441 C577.516006,916.263487 517.995864,950.958672 447.433363,989.891997 C441.140509,993.367217 434.965747,995.920689 428.909078,997.552413 C422.852409,999.184138 417.638679,1000 413.267887,1000 C409.244586,1000 404.203244,999.184138 398.14386,997.552413 C392.084477,995.920689 385.911072,993.367217 379.623647,989.891997 C309.343483,950.64373 249.971296,915.791074 201.507086,885.334028 C153.042875,854.876983 114.011159,825.203219 84.4119388,796.312737 C54.8127181,767.422256 33.3442565,736.274238 20.0065539,702.868686 C6.66885129,669.463133 0,630.345187 0,585.514848 Z"/><use xlink:href="#a" fill="#171E21"/><use xlink:href="#a" fill="url(#b)" fill-opacity="0"/><use xlink:href="#c" fill="#FFF"/><use xlink:href="#c" fill="url(#d)" fill-opacity="0"/></g><g transform="translate(672 685)"><path fill="#FFF" d="M223.615028,447 C192.787442,447 163.876994,441.21322 136.883685,429.63966 C109.890376,418.066101 86.117859,402.008745 65.5661348,381.467593 C45.0144107,360.92644 28.9487905,337.127829 17.3692743,310.071759 C5.78975811,283.015689 0,254.158436 0,223.5 C0,192.688272 5.78975811,163.792695 17.3692743,136.813272 C28.9487905,109.833848 45.0144107,86.0735597 65.5661348,65.5324074 C86.117859,44.9912551 109.890376,28.9338992 136.883685,17.3603395 C163.876994,5.78677984 192.787442,0 223.615028,0 C254.442615,0 283.31472,5.78677984 310.231343,17.3603395 C337.147967,28.9338992 360.882141,44.9912551 381.433865,65.5324074 C401.985589,86.0735597 418.051209,109.833848 429.630726,136.813272 C441.210242,163.792695 447,192.688272 447,223.5 C447,254.158436 441.210242,283.015689 429.630726,310.071759 C418.051209,337.127829 401.985589,360.92644 381.433865,381.467593 C360.882141,402.008745 337.147967,418.066101 310.231343,429.63966 C283.31472,441.21322 254.442615,447 223.615028,447 Z"/><use xlink:href="#e" fill="#171E21"/><use xlink:href="#e" fill="url(#f)" fill-opacity="0"/><path fill="#FFF" d="M212.421153,340.571429 L233.042278,340.571429 C235.929236,340.571429 238.438139,339.712215 240.568989,337.993788 C242.699838,336.275361 244.108949,333.972669 244.796319,331.085711 L250.570234,306.752784 C252.632347,306.202887 254.660091,305.549885 256.653466,304.793777 C258.646842,304.037669 260.468374,303.178455 262.118064,302.216136 L283.151612,315.207445 C285.626147,316.582187 288.203787,317.20082 290.884534,317.063346 C293.56528,316.925872 296.005446,315.826079 298.205033,313.763966 L312.227398,299.741601 C314.426984,297.40454 315.664252,294.861268 315.9392,292.111785 C316.214149,289.362302 315.458041,286.750293 313.670877,284.275758 L301.09199,263.24221 C301.916835,261.455046 302.707312,259.599145 303.46342,257.674507 C304.219528,255.749868 304.87253,253.893967 305.422427,252.106803 L329.755354,246.332888 C336.079166,244.958146 339.241071,241.040132 339.241071,234.578847 L339.241071,214.576355 C339.241071,211.551924 338.416226,208.974283 336.766536,206.843434 C335.116846,204.712584 332.779786,203.303474 329.755354,202.616103 L305.628638,196.842188 C304.941267,194.780076 304.185159,192.7867 303.360314,190.862062 C302.535469,188.937424 301.848098,187.218996 301.298202,185.706781 L313.877088,164.467022 C317.451416,158.555633 317.038994,153.469089 312.63982,149.20739 L297.998822,134.978813 C293.462174,130.717114 288.581841,130.167218 283.357823,133.329123 L262.118064,146.526643 C260.468374,145.701798 258.68121,144.876953 256.756572,144.052108 C254.831934,143.227263 252.769821,142.402418 250.570234,141.577573 L244.796319,117.450857 C244.108949,114.5639 242.699838,112.226839 240.568989,110.439675 C238.438139,108.652511 235.929236,107.758929 233.042278,107.758929 L212.421153,107.758929 C206.097342,107.758929 202.248065,110.989571 200.873323,117.450857 L194.893197,141.577573 C192.968559,142.264944 191.009552,142.986684 189.016177,143.742792 C187.022801,144.498899 185.132531,145.42685 183.345367,146.526643 L162.105609,133.329123 C156.88159,130.029743 151.93252,130.57964 147.258399,134.978813 L133.029823,149.20739 C128.630649,153.469089 128.14949,158.555633 131.586344,164.467022 L144.371441,185.706781 C143.68407,187.218996 142.927962,188.937424 142.103117,190.862062 C141.278272,192.7867 140.522165,194.780076 139.834794,196.842188 L115.914289,202.616103 C112.889857,203.303474 110.552796,204.712584 108.903106,206.843434 C107.253416,208.974283 106.428571,211.551924 106.428571,214.576355 L106.428571,234.578847 C106.428571,241.040132 109.590477,244.958146 115.914289,246.332888 L140.041005,252.106803 C140.728376,253.893967 141.415747,255.749868 142.103117,257.674507 C142.790488,259.599145 143.615333,261.455046 144.577652,263.24221 L131.792555,284.275758 C130.005391,286.750293 129.249283,289.362302 129.524231,292.111785 C129.79918,294.861268 131.036447,297.40454 133.236034,299.741601 L147.258399,313.763966 C149.457985,315.826079 151.93252,316.925872 154.682004,317.063346 C157.431487,317.20082 159.974759,316.582187 162.31182,315.207445 L183.551579,302.216136 C185.201269,303.178455 187.022801,304.037669 189.016177,304.793777 C191.009552,305.549885 192.968559,306.202887 194.893197,306.752784 L200.873323,331.085711 C201.42322,333.972669 202.763593,336.275361 204.894443,337.993788 C207.025292,339.712215 209.534196,340.571429 212.421153,340.571429 Z"/><use xlink:href="#g" fill="#171E21"/><use xlink:href="#g" fill="url(#h)" fill-opacity="0"/></g><g transform="translate(12.762 1130.985)"><use xlink:href="#i" fill="#FFF"/><path fill="#171E21" fill-rule="evenodd" stroke="#FFF" stroke-width="10" d="M205.585555,-5 L205.585555,296.01507 L147.148147,296.01507 L147.148147,275.382571 C141.795634,281.505605 135.642268,286.479514 128.840621,290.323923 C117.306381,296.843276 103.882121,300.116625 89.2576423,300.116625 C60.7544743,300.116625 37.1764285,288.685984 20.6803328,268.832915 C4.39312952,249.231248 -5,221.261576 -5,187.694954 C-5,154.574628 4.51148263,126.724918 20.7880607,107.121479 C37.3202334,87.2102027 60.8375969,75.6639086 88.867018,75.6639086 C111.994162,75.6639086 131.784499,83.2359793 146.028245,98.8782909 L146.383993,-5 L205.585555,-5 Z M100.781058,126.484143 C86.9345731,126.484143 75.3509516,131.892696 67.3431218,142.293671 C59.2514254,152.803575 54.8045925,168.160626 54.8045925,187.694954 C54.8045925,207.296414 59.2383994,222.64401 67.3130836,233.131818 C75.3226732,243.535078 86.9195325,248.905766 100.781058,248.905766 C115.279539,248.905766 127.300296,243.098003 135.66953,232.705437 C144.343488,221.934479 149.101269,206.433418 149.101269,187.694954 C149.101269,169.024825 144.3289,153.510612 135.635604,142.71564 C127.268535,132.325764 115.262052,126.484143 100.781058,126.484143 Z"/><use xlink:href="#j" fill="#FFF"/><path fill="#171E21" fill-rule="evenodd" stroke="#FFF" stroke-width="10" d="M333.398249,75.0779723 C364.500928,75.0779723 390.359835,86.6134346 408.522609,106.319685 C426.71242,126.055271 437.226186,154.098323 437.226186,187.30433 L437.226186,205.780867 L288.343635,205.780867 C289.648099,219.185156 294.189649,230.439914 301.863079,238.477412 C310.067066,247.07064 321.804098,251.835448 336.523243,251.835448 C347.526114,251.835448 356.78724,249.334823 363.967332,244.836093 C372.262326,239.638814 377.695783,231.777765 379.770294,222.343316 L435.527483,222.343316 C432.623776,246.438201 419.806621,266.82531 400.546569,280.78187 C383.197543,293.353627 360.587876,300.702561 335.351371,300.702561 C303.28015,300.702561 277.19926,289.096196 258.95127,269.572619 C240.281354,249.597621 229.765625,221.212759 229.765625,188.085579 C229.765625,155.268915 240.56796,127.065735 258.837326,107.059874 C277.169368,86.9853808 303.04573,75.0779723 333.398249,75.0779723 Z M334.179498,124.140398 C321.402456,124.140398 310.706526,128.099223 302.857018,135.465684 C295.995709,141.904759 291.352579,150.875152 289.217363,161.796557 L379.176579,161.796557 C377.10593,150.897354 372.476557,141.942513 365.620435,135.508307 C357.74212,128.114812 346.983586,124.140398 334.179498,124.140398 Z"/><use xlink:href="#k" fill="#FFF"/><path fill="#171E21" fill-rule="evenodd" stroke="#FFF" stroke-width="10" d="M502.958343,79.7654633 L541.846183,190.585735 C546.117681,203.715188 550.261198,216.97284 554.380001,230.151794 L552.448,223.973 L553.804879,219.493882 C556.244829,211.454844 558.723722,203.407361 561.288004,195.397974 L562.837192,190.597287 L601.124549,79.7654633 L663.47102,79.7654633 L582.172635,296.01507 L521.342625,296.01507 L440.04424,79.7654633 L502.958343,79.7654633 Z"/><use xlink:href="#l" fill="#FFF"/><path fill="#171E21" fill-rule="evenodd" stroke="#FFF" stroke-width="10" d="M759.570146,75.2732844 C786.075506,75.2732844 808.285686,82.448898 824.01121,95.1156814 C841.050747,108.840892 850.664442,129.016829 849.911797,154.023153 L793.337029,154.023153 C794.713488,144.194675 791.339843,135.585963 784.520164,129.856027 C778.704041,124.969284 770.489607,122.187276 760.742018,122.187276 C751.422011,122.187276 743.80181,124.354249 738.484724,128.156411 C733.591598,131.655407 730.781148,136.568851 730.781148,142.187229 C730.781148,146.659145 732.611876,150.280853 735.933731,153.151886 C740.109133,156.760626 746.352589,159.240218 754.155515,160.927309 L791.251779,168.541805 C812.823119,173.081656 828.507581,180.247431 838.881782,190.113093 C849.687603,200.389216 854.999661,213.608028 854.999661,230.272998 C854.999661,251.798665 845.376497,269.42015 828.955813,281.735664 C812.685791,293.93818 789.568918,300.897873 762.499828,300.897873 C735.530634,300.897873 712.17652,294.096795 695.332424,281.354817 C677.674114,267.996915 666.985375,248.135473 666.667807,222.343316 L725.232376,222.343316 C725.307898,233.05432 728.852586,241.457766 735.854701,246.833797 C742.072789,251.607874 750.818732,253.983881 761.718579,253.983881 C772.263618,253.983881 780.827203,251.86418 786.760166,247.989592 C791.981834,244.579523 794.999756,239.758132 794.999756,233.983929 C794.999756,229.534649 793.116528,226.016479 789.783987,223.239362 C785.420838,219.603405 778.894144,217.159247 770.849255,215.440205 L735.706387,208.216393 C714.76777,203.863595 698.911777,196.21161 688.233825,185.637665 C677.257095,174.76785 671.562491,160.791677 671.562491,143.749726 C671.562491,123.08557 680.492923,105.790019 696.315455,93.6904355 C711.489066,82.0870859 733.176032,75.2732844 759.570146,75.2732844 Z"/><use xlink:href="#m" fill="#FFF"/><path fill="#171E21" fill-rule="evenodd" stroke="#FFF" stroke-width="10" d="M972.656062,75.0779723 C1003.75874,75.0779723 1029.61765,86.6134346 1047.78042,106.319685 C1065.97023,126.055271 1076.484,154.098323 1076.484,187.30433 L1076.484,205.780867 L927.601448,205.780867 C928.905912,219.185156 933.447461,230.439914 941.120891,238.477412 C949.324879,247.07064 961.061911,251.835448 975.781056,251.835448 C986.783926,251.835448 996.045052,249.334823 1003.22514,244.836093 C1011.52014,239.638814 1016.9536,231.777765 1019.02811,222.343316 L1074.7853,222.343316 C1071.88159,246.438201 1059.06443,266.82531 1039.80438,280.78187 C1022.45536,293.353627 999.845689,300.702561 974.609183,300.702561 C942.537962,300.702561 916.457072,289.096196 898.209082,269.572619 C879.539167,249.597621 869.023438,221.212759 869.023438,188.085579 C869.023438,155.268915 879.825773,127.065735 898.095139,107.059874 C916.427181,86.9853808 942.303543,75.0779723 972.656062,75.0779723 Z M973.43731,124.140398 C960.660268,124.140398 949.964339,128.099223 942.114831,135.465684 C935.253522,141.904759 930.610392,150.875152 928.475175,161.796557 L1018.43439,161.796557 C1016.36374,150.897354 1011.73437,141.942513 1004.87825,135.508307 C996.999933,128.114812 986.241398,124.140398 973.43731,124.140398 Z"/><use xlink:href="#n" fill="#FFF"/><path fill="#171E21" fill-rule="evenodd" stroke="#FFF" stroke-width="10" d="M1196.09356,75.0779723 C1223.10682,75.0779723 1246.3848,83.6071986 1263.55386,98.0163011 C1282.40058,113.833386 1293.95394,136.759348 1294.98622,163.593448 L1237.0164,163.593448 C1235.91053,151.684922 1231.34253,141.512397 1223.3318,134.795977 C1216.6822,129.220764 1207.7161,126.093519 1196.67949,126.093519 C1182.37247,126.093519 1170.87074,131.812851 1162.94485,142.110505 C1154.53288,153.039696 1150.11709,168.870023 1150.11709,188.085579 C1150.11709,207.220786 1154.49127,222.96671 1162.89577,233.822532 C1170.8023,244.035124 1182.30245,249.687014 1196.67949,249.687014 C1207.67812,249.687014 1216.29676,246.761157 1222.69418,241.321939 C1230.5208,234.667586 1234.94727,224.409043 1236.82655,211.991774 L1294.89653,211.991774 C1294.36179,238.413689 1282.86992,261.494492 1263.83408,277.510031 C1246.62995,291.984486 1223.21554,300.702561 1196.09356,300.702561 C1164.47388,300.702561 1138.10887,289.143858 1119.58171,269.360005 C1101.05226,249.57372 1090.3125,221.455177 1090.3125,188.085579 C1090.3125,154.69378 1101.06714,126.45707 1119.62363,106.569969 C1138.15032,86.7148155 1164.50027,75.0779723 1196.09356,75.0779723 Z"/><use xlink:href="#o" fill="#FFF"/><path fill="#171E21" fill-rule="evenodd" stroke="#FFF" stroke-width="10" d="M426.337808,321.952883 L426.337808,357.109066 L452.582876,357.109066 L452.582876,391.889292 L426.337808,391.889292 L426.337792,454.651646 C426.34028,457.000902 426.402206,458.858748 427.561619,459.942312 C428.906738,461.199433 431.250336,461.234844 434.399307,461.234844 L452.582876,461.234844 L452.582876,496.01507 L429.028223,496.01507 C414.363479,496.01507 403.745061,492.838186 396.678817,486.890018 C389.323693,480.69868 385.454078,471.427438 385.454078,458.544429 L385.454078,391.889292 L362.993184,391.889292 L362.993184,357.109066 L385.454078,357.109066 L385.454078,321.952883 L426.337808,321.952883 Z"/><use xlink:href="#p" fill="#FFF"/><path fill="#171E21" fill-rule="evenodd" stroke="#FFF" stroke-width="10" d="M524.609262,354.179384 C545.089146,354.179384 562.196681,361.658453 574.230733,374.431641 C586.203493,387.139772 593.207774,405.188857 593.207774,426.684138 C593.207774,448.16794 586.211593,466.143573 574.254865,478.788788 C562.221249,491.515318 545.105356,498.944752 524.609262,498.944752 C504.113169,498.944752 486.997276,491.515318 474.96366,478.788788 C463.006932,466.143573 456.010751,448.16794 456.010751,426.684138 C456.010751,405.188857 463.015032,387.139772 474.987792,374.431641 C487.021844,361.658453 504.129379,354.179384 524.609262,354.179384 Z M524.609262,389.936171 C516.348807,389.936171 509.539324,393.216424 504.830253,399.270943 C499.795056,405.744769 497.138621,415.145543 497.138621,426.684138 C497.138621,438.170569 499.768379,447.518277 504.797044,453.945894 C509.495624,459.951598 516.306851,463.187965 524.609262,463.187965 C532.84869,463.187965 539.619343,459.923975 544.298977,453.919916 C549.32036,447.477387 551.957834,438.125692 551.957834,426.684138 C551.957834,415.190564 549.293778,405.785915 544.265979,399.297208 C539.57586,393.244301 532.806939,389.936171 524.609262,389.936171 Z"/><use xlink:href="#q" fill="#FFF"/><path fill="#171E21" fill-rule="evenodd" stroke="#FFF" stroke-width="10" d="M667.065317,354.179384 C687.545201,354.179384 704.652736,361.658453 716.686788,374.431641 C728.659548,387.139772 735.663829,405.188857 735.663829,426.684138 C735.663829,448.16794 728.667647,466.143573 716.71092,478.788788 C704.677304,491.515318 687.561411,498.944752 667.065317,498.944752 C646.569224,498.944752 629.453331,491.515318 617.419715,478.788788 C605.462987,466.143573 598.466806,448.16794 598.466806,426.684138 C598.466806,405.188857 605.471086,387.139772 617.443847,374.431641 C629.477899,361.658453 646.585433,354.179384 667.065317,354.179384 Z M667.065317,389.936171 C658.804861,389.936171 651.995379,393.216424 647.286308,399.270943 C642.251111,405.744769 639.594676,415.145543 639.594676,426.684138 C639.594676,438.170569 642.224433,447.518277 647.253098,453.945894 C651.951678,459.951598 658.762905,463.187965 667.065317,463.187965 C675.304745,463.187965 682.075397,459.923975 686.755032,453.919916 C691.776415,447.477387 694.413888,438.125692 694.413888,426.684138 C694.413888,415.190564 691.749833,405.785915 686.722033,399.297208 C682.031915,393.244301 675.262994,389.936171 667.065317,389.936171 Z"/><use xlink:href="#r" fill="#FFF"/><path fill="#171E21" fill-rule="evenodd" stroke="#FFF" stroke-width="10" d="M787.665954,304.130651 L787.665954,496.01507 L746.904294,496.01507 L746.904294,304.130651 L787.665954,304.130651 Z"/><use xlink:href="#s" fill="#FFF"/><path fill="#171E21" fill-rule="evenodd" stroke="#FFF" stroke-width="10" d="M858.715725,354.301454 C875.779324,354.301454 890.0521,358.969808 900.167577,367.117743 C911.667425,376.380779 917.996948,390.147447 916.972225,407.270122 L877.528042,407.270122 C879.18149,400.944522 877.371617,395.312462 873.103328,391.726219 C869.763277,388.919887 865.032265,387.372699 859.448145,387.372699 C854.094234,387.372699 849.690601,388.563541 846.627964,390.753583 C844.101651,392.560108 842.597601,395.080116 842.597601,397.997669 C842.597601,400.219458 843.522646,402.009046 845.169031,403.431992 C847.584103,405.519305 851.21741,406.901576 855.718277,407.875502 L878.898308,412.633508 C892.812873,415.561364 902.892909,420.235613 909.577603,426.592626 C916.696828,433.362869 920.234172,442.060318 920.234172,453.051275 C920.234172,467.129199 913.948314,478.659281 903.206767,486.715441 C892.762576,494.548584 877.935909,499.066822 860.546776,499.066822 C843.224259,499.066822 828.247205,494.651085 817.435971,486.472759 C805.527611,477.464495 798.473205,463.91656 798.781071,446.220224 L839.175698,446.220224 C838.803047,453.11945 840.687656,458.576466 845.035416,461.914557 C848.647204,464.687588 853.74655,465.995577 860.058496,465.995577 C866.20322,465.995577 871.219058,464.817252 874.684258,462.554264 C877.362509,460.805203 878.984231,458.356768 878.984231,455.370607 C878.984231,453.178561 878.035108,451.459066 876.39903,450.095667 C873.862368,447.981782 870.045913,446.613335 865.38046,445.615903 L843.421312,441.102078 C829.903001,438.292134 819.698636,433.306836 812.811204,426.48649 C805.601619,419.347128 801.835941,410.174941 801.835941,398.97423 C801.835941,385.444456 807.682722,374.119992 818.042574,366.197752 C827.799298,358.736728 841.730067,354.301454 858.715725,354.301454 Z"/></g></g></svg>
