<svg viewBox="0 0 1312 1497" xmlns="http://www.w3.org/2000/svg" xmlns:xlink="http://www.w3.org/1999/xlink"><defs><linearGradient x1="50%" x2="50%" y1="0%" y2="100%"><stop offset="0" stop-color="#fff" stop-opacity=".5"/><stop offset="1" stop-opacity=".5"/></linearGradient><path id="a" d="m422.216007 872.213376c2.907359-.901465 5.896782-2.079101 8.968267-3.532908 3.071484-1.453808 6.52202-3.394823 10.351607-5.823046 54.072723-32.833118 99.423367-60.986956 136.051931-84.461516 36.628565-23.474559 65.934022-45.774087 87.916371-66.898585s37.783953-44.176984 47.404813-69.157458 14.43129-55.226441 14.43129-90.737899v-327.497456c0-8.201766-1.048578-14.351788-3.145732-18.450066-2.097155-4.098277-6.495969-7.330263-13.196444-9.695957-14.448223-5.002347-31.022258-10.873593-49.722104-17.613735-18.699846-6.740143-38.360996-13.789024-58.983451-21.146644s-41.171966-14.750412-61.648532-22.178378c-20.476566-7.427965-39.797743-14.574548-57.963531-21.43975-18.165788-6.865201-33.983023-12.939666-47.451706-18.2233963-2.662474-.9535725-5.026658-1.7377947-7.092551-2.3526666-2.065893-.614872-4.039302-1.0734205-5.920228-1.3756457z"/></defs><g fill="none"><g transform="translate(235)"><path d="m0 585.514848v-374.989818c0-27.845201 5.66574095-48.019125 16.9972229-60.521772 11.3314819-12.502647 28.3775707-23.516108 51.1382665-33.040383 14.1277029-5.739543 34.7776586-13.784135 61.9498686-24.1337744 27.172209-10.3496397 56.421224-21.2721477 87.747043-32.767524 31.325819-11.4953764 60.540899-21.9739793 87.645239-31.4358089s47.652492-16.193711 61.644456-20.19564406c7.096429-1.9765314 14.647583-3.87568486 22.653462-5.69746037s15.836656-2.73266327 23.492329-2.73266327c7.997734 0 15.992755.7452718 23.98506 2.2358154s15.533958 3.55531301 22.624957 6.19430824c13.991964 4.65896686 34.54826 11.78995556 61.668889 21.39296596s56.335708 20.0042354 87.645239 31.203675 60.550401 21.8870988 87.72261 32.0629775c27.17221 10.1758789 47.838454 18.1335899 61.998735 23.8731329 22.413204 9.839217 39.364275 20.931413 50.853214 33.276589 11.488939 12.345177 17.233409 32.440365 17.233409 60.285566v374.989818c0 44.830339-6.660707 84.02702-19.982121 117.590044s-34.703003 64.789776-64.144766 93.680258c-29.441764 28.890482-68.401538 58.564245-116.879322 89.021291-48.477785 30.457046-107.997927 65.152231-178.560428 104.085556-6.292854 3.47522-12.467616 6.028692-18.524285 7.660416-6.056669 1.631725-11.270399 2.447587-15.641191 2.447587-4.023301 0-9.064643-.815862-15.124027-2.447587-6.059383-1.631724-12.232788-4.185196-18.520213-7.660416-70.280164-39.248267-129.652351-74.100923-178.116561-104.557969-48.464211-30.457045-87.495927-60.130809-117.0951472-89.021291-29.5992207-28.890481-51.0676823-60.038499-64.4053849-93.444051-13.33770261-33.405553-20.0065539-72.523499-20.0065539-117.353838z" fill="#fff"/><path d="m23.0944149 580.738753v-354.046238c0-26.290017 5.3493033-45.337206 16.0479099-57.141567 10.6986065-11.804361 26.7926532-22.202708 48.2821399-31.195042 13.3386553-5.418984 32.8352903-13.014276 58.4899023-22.785877 25.654613-9.771602 53.270039-20.0840761 82.846278-30.9374235 29.576239-10.8533473 57.159625-20.7467091 82.750159-29.6800855 25.590534-8.9333763 44.991049-15.2892749 58.201547-19.0676958 6.700086-1.86614 13.8295-3.6592238 21.388242-5.3792512 7.558743-1.7200274 14.952162-2.5800411 22.180257-2.5800411 7.551053 0 15.099543.7036476 22.64547 2.1109427 7.545926 1.4072952 14.666369 3.356745 21.361329 5.8483496 13.210498 4.3987586 32.618703 11.131474 58.224616 20.198146 25.605912 9.0666721 53.189299 18.8869776 82.750159 29.4609166s57.168596 20.6646812 82.823209 30.2722262c25.654612 9.607545 45.166626 17.120809 58.536039 22.539793 21.161403 9.289686 37.165739 19.762371 48.013009 31.418056 10.847269 11.655685 16.270904 30.628536 16.270904 56.918553v354.046238c0 42.326517-6.288699 79.334022-18.866098 111.022515s-32.764803 61.171198-60.562213 88.448116c-27.79741 27.276917-64.581239 55.29337-110.351487 84.049357-45.770249 28.755987-101.966128 61.513409-168.587638 98.272267-5.941392 3.281125-11.771287 5.691983-17.489684 7.232574-5.718398 1.540591-10.640936 2.310886-14.767615 2.310886-3.798595 0-8.558372-.770295-14.279333-2.310886s-11.549574-3.951449-17.48584-7.232574c-66.354941-37.05621-122.411129-69.962308-168.168562-98.718295-45.757432-28.755987-82.609185-56.77244-110.555258-84.049357-27.9460726-27.276918-48.2154978-56.685285-60.8082756-88.225102-12.5927777-31.539817-18.8891665-68.472984-18.8891665-110.799501z" fill="#171e21"/><use fill="#fff" xlink:href="#a"/><use fill="none" xlink:href="#a"/></g><g transform="translate(670 546)"><path d="m223.615028 447c-30.827586 0-59.738034-5.78678-86.731343-17.36034-26.993309-11.573559-50.765826-27.630915-71.3175502-48.172067-20.5517241-20.541153-36.6173443-44.339764-48.1968605-71.395834-11.57951619-27.05607-17.3692743-55.913323-17.3692743-86.571759 0-30.811728 5.78975811-59.707305 17.3692743-86.686728 11.5795162-26.979424 27.6451364-50.7397123 48.1968605-71.2808646 20.5517242-20.5411523 44.3242412-36.5985082 71.3175502-48.1720679 26.993309-11.57355966 55.903757-17.3603395 86.731343-17.3603395 30.827587 0 59.699692 5.78677984 86.616315 17.3603395 26.916624 11.5735597 50.650798 27.6309156 71.202522 48.1720679s36.617344 44.3014406 48.196861 71.2808646c11.579516 26.979423 17.369274 55.875 17.369274 86.686728 0 30.658436-5.789758 59.515689-17.369274 86.571759-11.579517 27.05607-27.645137 50.854681-48.196861 71.395834-20.551724 20.541152-44.285898 36.598508-71.202522 48.172067-26.916623 11.57356-55.788728 17.36034-86.616315 17.36034z" fill="#fff"/><path d="m223.603389 424.383929c-27.708129 0-53.693114-5.201213-77.954958-15.603639-24.261843-10.402426-45.628808-24.83493-64.1008931-43.297513-18.4720854-18.462584-32.9120178-39.853002-43.3197973-64.171255-10.4077794-24.318254-15.6116692-50.255428-15.6116692-77.811522 0-27.693875 5.2038898-53.665494 15.6116692-77.914857 10.4077795-24.249363 24.8477119-45.6053364 43.3197973-64.0679197 18.4720851-18.4625833 39.8390501-32.8950877 64.1008931-43.2975134 24.261844-10.4024256 50.246829-15.6036385 77.954958-15.6036385 27.708128 0 53.658651 5.2012129 77.851568 15.6036385 24.192918 10.4024257 45.52542 24.8349301 63.997505 43.2975134 18.472086 18.4625833 32.912018 39.8185567 43.319797 64.0679197 10.40778 24.249363 15.61167 50.220982 15.61167 77.914857 0 27.556094-5.20389 53.493268-15.61167 77.811522-10.407779 24.318253-24.847711 45.708671-43.319797 64.171255-18.472085 18.462583-39.804587 32.895087-63.997505 43.297513-24.192917 10.402426-50.14344 15.603639-77.851568 15.603639z" fill="#171e21"/><path d="m212.421153 340.571429h20.621125c2.886958 0 5.395861-.859214 7.526711-2.577641 2.130849-1.718427 3.53996-4.021119 4.22733-6.908077l5.773915-24.332927c2.062113-.549897 4.089857-1.202899 6.083232-1.959007 1.993376-.756108 3.814908-1.615322 5.464598-2.577641l21.033548 12.991309c2.474535 1.374742 5.052175 1.993375 7.732922 1.855901 2.680746-.137474 5.120912-1.237267 7.320499-3.29938l14.022365-14.022365c2.199586-2.337061 3.436854-4.880333 3.711802-7.629816.274949-2.749483-.481159-5.361492-2.268323-7.836027l-12.578887-21.033548c.824845-1.787164 1.615322-3.643065 2.37143-5.567703.756108-1.924639 1.40911-3.78054 1.959007-5.567704l24.332927-5.773915c6.323812-1.374742 9.485717-5.292756 9.485717-11.754041v-20.002492c0-3.024431-.824845-5.602072-2.474535-7.732921-1.64969-2.13085-3.98675-3.53996-7.011182-4.227331l-24.126716-5.773915c-.687371-2.062112-1.443479-4.055488-2.268324-5.980126s-1.512216-3.643066-2.062112-5.155281l12.578886-21.239759c3.574328-5.911389 3.161906-10.997933-1.237268-15.259632l-14.640998-14.228577c-4.536648-4.261699-9.416981-4.811595-14.640999-1.64969l-21.239759 13.19752c-1.64969-.824845-3.436854-1.64969-5.361492-2.474535s-3.986751-1.64969-6.186338-2.474535l-5.773915-24.126716c-.68737-2.886957-2.096481-5.224018-4.22733-7.011182-2.13085-1.787164-4.639753-2.680746-7.526711-2.680746h-20.621125c-6.323811 0-10.173088 3.230642-11.54783 9.691928l-5.980126 24.126716c-1.924638.687371-3.883645 1.409111-5.87702 2.165219-1.993376.756107-3.883646 1.684058-5.67081 2.783851l-21.239758-13.19752c-5.224019-3.29938-10.173089-2.749483-14.84721 1.64969l-14.228576 14.228577c-4.399174 4.261699-4.880333 9.348243-1.443479 15.259632l12.785097 21.239759c-.687371 1.512215-1.443479 3.230643-2.268324 5.155281s-1.580952 3.918014-2.268323 5.980126l-23.920505 5.773915c-3.024432.687371-5.361493 2.096481-7.011183 4.227331-1.64969 2.130849-2.474535 4.70849-2.474535 7.732921v20.002492c0 6.461285 3.161906 10.379299 9.485718 11.754041l24.126716 5.773915c.687371 1.787164 1.374742 3.643065 2.062112 5.567704.687371 1.924638 1.512216 3.780539 2.474535 5.567703l-12.785097 21.033548c-1.787164 2.474535-2.543272 5.086544-2.268324 7.836027.274949 2.749483 1.512216 5.292755 3.711803 7.629816l14.022365 14.022365c2.199586 2.062113 4.674121 3.161906 7.423605 3.29938 2.749483.137474 5.292755-.481159 7.629816-1.855901l21.239759-12.991309c1.64969.962319 3.471222 1.821533 5.464598 2.577641 1.993375.756108 3.952382 1.40911 5.87702 1.959007l5.980126 24.332927c.549897 2.886958 1.89027 5.18965 4.02112 6.908077 2.130849 1.718427 4.639753 2.577641 7.52671 2.577641z" fill="#fff"/><path d="m223.5 262.080357c-10.671163 0-19.769013-3.851684-27.293551-11.555051-7.524537-7.703368-11.286806-16.89883-11.286806-27.586385 0-10.826355 3.762269-20.091216 11.286806-27.794584 7.524538-7.703367 16.622388-11.555051 27.293551-11.555051s19.769013 3.851684 27.293551 11.555051c7.524537 7.703368 11.286806 16.968229 11.286806 27.794584 0 10.687555-3.762269 19.883017-11.286806 27.586385-7.524538 7.703367-16.622388 11.555051-27.293551 11.555051z" fill="#171e21"/></g><g fill="#fff" stroke="#171e21" stroke-width="10" transform="translate(10.7617 991.9849)"><path d="m205.585555-5v301.01507h-58.437408v-20.632499c-5.352513 6.123034-11.505879 11.096943-18.307526 14.941352-11.53424 6.519353-24.9585 9.792702-39.5829787 9.792702-28.503168 0-52.0812138-11.430641-68.5773095-31.28371-16.28720328-19.601667-25.6803328-47.571339-25.6803328-81.137961 0-33.120326 9.51148263-60.970036 25.7880607-80.573475 16.5321727-19.9112763 40.0495362-31.4575704 68.0789573-31.4575704 23.127144 0 42.917481 7.5720707 57.161227 23.2143823l.355748-103.8782909zm-104.804497 131.484143c-13.8464849 0-25.4301064 5.408553-33.4379362 15.809528-8.0916964 10.509904-12.5385293 25.866955-12.5385293 45.401283 0 19.60146 4.4338069 34.949056 12.5084911 45.436864 8.0095896 10.40326 19.6064489 15.773948 33.4679744 15.773948 14.498481 0 26.519238-5.807763 34.888472-16.200329 8.673958-10.770958 13.431739-26.272019 13.431739-45.010483 0-18.670129-4.772369-34.184342-13.465665-44.979314-8.367069-10.389876-20.373552-16.231497-34.854546-16.231497z"/><path d="m333.398249 75.0779723c31.102679 0 56.961586 11.5354623 75.12436 31.2417127 18.189811 19.735586 28.703577 47.778638 28.703577 80.984645v18.476537h-148.882551c1.304464 13.404289 5.846014 24.659047 13.519444 32.696545 8.203987 8.593228 19.941019 13.358036 34.660164 13.358036 11.002871 0 20.263997-2.500625 27.444089-6.999355 8.294994-5.197279 13.728451-13.058328 15.802962-22.492777h55.757189c-2.903707 24.094885-15.720862 44.481994-34.980914 58.438554-17.349026 12.571757-39.958693 19.920691-65.195198 19.920691-32.071221 0-58.152111-11.606365-76.400101-31.129942-18.669916-19.974998-29.185645-48.35986-29.185645-81.48704 0-32.816664 10.802335-61.019844 29.071701-81.025705 18.332042-20.0744932 44.208404-31.9819017 74.560923-31.9819017zm.781249 49.0624257c-12.777042 0-23.472972 3.958825-31.32248 11.325286-6.861309 6.439075-11.504439 15.409468-13.639655 26.330873h89.959216c-2.070649-10.899203-6.700022-19.854044-13.556144-26.28825-7.878315-7.393495-18.636849-11.367909-31.440937-11.367909z"/><path d="m502.958343 79.7654633 38.88784 110.8202717c4.271498 13.129453 8.415015 26.387105 12.533818 39.566059l-1.932001-6.178794 1.356879-4.479118c2.43995-8.039038 4.918843-16.086521 7.483125-24.095908l1.549188-4.800687 38.287357-110.8318237h62.346471l-81.298385 216.2496067h-60.83001l-81.298385-216.2496067z"/><path d="m759.570146 75.2732844c26.50536 0 48.71554 7.1756136 64.441064 19.842397 17.039537 13.7252106 26.653232 33.9011476 25.900587 58.9074716h-56.574768c1.376459-9.828478-1.997186-18.43719-8.816865-24.167126-5.816123-4.886743-14.030557-7.668751-23.778146-7.668751-9.320007 0-16.940208 2.166973-22.257294 5.969135-4.893126 3.498996-7.703576 8.41244-7.703576 14.030818 0 4.471916 1.830728 8.093624 5.152583 10.964657 4.175402 3.60874 10.418858 6.088332 18.221784 7.775423l37.096264 7.614496c21.57134 4.539851 37.255802 11.705626 47.630003 21.571288 10.805821 10.276123 16.117879 23.494935 16.117879 40.159905 0 21.525667-9.623164 39.147152-26.043848 51.462666-16.270022 12.202516-39.386895 19.162209-66.455985 19.162209-26.969194 0-50.323308-6.801078-67.167404-19.543056-17.65831-13.357902-28.347049-33.219344-28.664617-59.011501h58.564569c.075522 10.711004 3.62021 19.11445 10.622325 24.490481 6.218088 4.774077 14.964031 7.150084 25.863878 7.150084 10.545039 0 19.108624-2.119701 25.041587-5.994289 5.221668-3.410069 8.23959-8.23146 8.23959-14.005663 0-4.44928-1.883228-7.96745-5.215769-10.744567-4.363149-3.635957-10.889843-6.080115-18.934732-7.799157l-35.142868-7.223812c-20.938617-4.352798-36.79461-12.004783-47.472562-22.578728-10.97673-10.869815-16.671334-24.845988-16.671334-41.887939 0-20.664156 8.930432-37.959707 24.752964-50.0592905 15.173611-11.6033496 36.860577-18.4171511 63.254691-18.4171511z"/><path d="m972.656062 75.0779723c31.102678 0 56.961588 11.5354623 75.124358 31.2417127 18.18981 19.735586 28.70358 47.778638 28.70358 80.984645v18.476537h-148.882552c1.304464 13.404289 5.846013 24.659047 13.519443 32.696545 8.203988 8.593228 19.94102 13.358036 34.660165 13.358036 11.00287 0 20.263996-2.500625 27.444084-6.999355 8.295-5.197279 13.72846-13.058328 15.80297-22.492777h55.75719c-2.90371 24.094885-15.72087 44.481994-34.98092 58.438554-17.34902 12.571757-39.958691 19.920691-65.195197 19.920691-32.071221 0-58.152111-11.606365-76.400101-31.129942-18.669915-19.974998-29.185644-48.35986-29.185644-81.48704 0-32.816664 10.802335-61.019844 29.071701-81.025705 18.332042-20.0744932 44.208404-31.9819017 74.560923-31.9819017zm.781248 49.0624257c-12.777042 0-23.472971 3.958825-31.322479 11.325286-6.861309 6.439075-11.504439 15.409468-13.639656 26.330873h89.959215c-2.07065-10.899203-6.70002-19.854044-13.55614-26.28825-7.878317-7.393495-18.636852-11.367909-31.44094-11.367909z"/><path d="m1196.09356 75.0779723c27.01326 0 50.29124 8.5292263 67.4603 22.9383288 18.84672 15.8170849 30.40008 38.7430469 31.43236 65.5771469h-57.96982c-1.10587-11.908526-5.67387-22.081051-13.6846-28.797471-6.6496-5.575213-15.6157-8.702458-26.65231-8.702458-14.30702 0-25.80875 5.719332-33.73464 16.016986-8.41197 10.929191-12.82776 26.759518-12.82776 45.975074 0 19.135207 4.37418 34.881131 12.77868 45.736953 7.90653 10.212592 19.40668 15.864482 33.78372 15.864482 10.99863 0 19.61727-2.925857 26.01469-8.365075 7.82662-6.654353 12.25309-16.912896 14.13237-29.330165h58.06998c-.53474 26.421915-12.02661 49.502718-31.06245 65.518257-17.20413 14.474455-40.61854 23.19253-67.74052 23.19253-31.61968 0-57.98469-11.558703-76.51185-31.342556-18.52945-19.786285-29.26921-47.904828-29.26921-81.274426 0-33.391799 10.75464-61.628509 29.31113-81.51561 18.52669-19.8551535 44.87664-31.4919967 76.46993-31.4919967z"/><path d="m426.337808 321.952883v35.156183h26.245068v34.780226h-26.245068l-.000016 62.762354c.002488 2.349256.064414 4.207102 1.223827 5.290666 1.345119 1.257121 3.688717 1.292532 6.837688 1.292532h18.183569v34.780226h-23.554653c-14.664744 0-25.283162-3.176884-32.349406-9.125052-7.355124-6.191338-11.224739-15.46258-11.224739-28.345589v-66.655137h-22.460894v-34.780226h22.460894v-35.156183z"/><path d="m524.609262 354.179384c20.479884 0 37.587419 7.479069 49.621471 20.252257 11.97276 12.708131 18.977041 30.757216 18.977041 52.252497 0 21.483802-6.996181 39.459435-18.952909 52.10465-12.033616 12.72653-29.149509 20.155964-49.645603 20.155964-20.496093 0-37.611986-7.429434-49.645602-20.155964-11.956728-12.645215-18.952909-30.620848-18.952909-52.10465 0-21.495281 7.004281-39.544366 18.977041-52.252497 12.034052-12.773188 29.141587-20.252257 49.62147-20.252257zm0 35.756787c-8.260455 0-15.069938 3.280253-19.779009 9.334772-5.035197 6.473826-7.691632 15.8746-7.691632 27.413195 0 11.486431 2.629758 20.834139 7.658423 27.261756 4.69858 6.005704 11.509807 9.242071 19.812218 9.242071 8.239428 0 15.010081-3.26399 19.689715-9.268049 5.021383-6.442529 7.658857-15.794224 7.658857-27.235778 0-11.493574-2.664056-20.898223-7.691855-27.38693-4.690119-6.052907-11.45904-9.361037-19.656717-9.361037z"/><path d="m667.065317 354.179384c20.479884 0 37.587419 7.479069 49.621471 20.252257 11.97276 12.708131 18.977041 30.757216 18.977041 52.252497 0 21.483802-6.996182 39.459435-18.952909 52.10465-12.033616 12.72653-29.149509 20.155964-49.645603 20.155964-20.496093 0-37.611986-7.429434-49.645602-20.155964-11.956728-12.645215-18.952909-30.620848-18.952909-52.10465 0-21.495281 7.00428-39.544366 18.977041-52.252497 12.034052-12.773188 29.141586-20.252257 49.62147-20.252257zm0 35.756787c-8.260456 0-15.069938 3.280253-19.779009 9.334772-5.035197 6.473826-7.691632 15.8746-7.691632 27.413195 0 11.486431 2.629757 20.834139 7.658422 27.261756 4.69858 6.005704 11.509807 9.242071 19.812219 9.242071 8.239428 0 15.01008-3.26399 19.689715-9.268049 5.021383-6.442529 7.658856-15.794224 7.658856-27.235778 0-11.493574-2.664055-20.898223-7.691855-27.38693-4.690118-6.052907-11.459039-9.361037-19.656716-9.361037z"/><path d="m787.665954 304.130651v191.884419h-40.76166v-191.884419z"/><path d="m858.715725 354.301454c17.063599 0 31.336375 4.668354 41.451852 12.816289 11.499848 9.263036 17.829371 23.029704 16.804648 40.152379h-39.444183c1.653448-6.3256-.156425-11.95766-4.424714-15.543903-3.340051-2.806332-8.071063-4.35352-13.655183-4.35352-5.353911 0-9.757544 1.190842-12.820181 3.380884-2.526313 1.806525-4.030363 4.326533-4.030363 7.244086 0 2.221789.925045 4.011377 2.57143 5.434323 2.415072 2.087313 6.048379 3.469584 10.549246 4.44351l23.180031 4.758006c13.914565 2.927856 23.994601 7.602105 30.679295 13.959118 7.119225 6.770243 10.656569 15.467692 10.656569 26.458649 0 14.077924-6.285858 25.608006-17.027405 33.664166-10.444191 7.833143-25.270858 12.351381-42.659991 12.351381-17.322517 0-32.299571-4.415737-43.110805-12.594063-11.90836-9.008264-18.962766-22.556199-18.6549-40.252535h40.394627c-.372651 6.899226 1.511958 12.356242 5.859718 15.694333 3.611788 2.773031 8.711134 4.08102 15.02308 4.08102 6.144724 0 11.160562-1.178325 14.625762-3.441313 2.678251-1.749061 4.299973-4.197496 4.299973-7.183657 0-2.192046-.949123-3.911541-2.585201-5.27494-2.536662-2.113885-6.353117-3.482332-11.01857-4.479764l-21.959148-4.513825c-13.518311-2.809944-23.722676-7.795242-30.610108-14.615588-7.209585-7.139362-10.975263-16.311549-10.975263-27.51226 0-13.529774 5.846781-24.854238 16.206633-32.776478 9.756724-7.461024 23.687493-11.896298 40.673151-11.896298z"/></g></g></svg>
